{
	"asset":{
		"generator":"Khronos glTF Blender I/O v5.2.39",
		"version":"2.0"
	},
	"scene":0,
	"scenes":[
		{
			"name":"Scene",
			"nodes":[
				0,
				1,
				2
			]
		}
	],
	"nodes":[
		{
			"name":"B\u00e9zierCurve"
		},
		{
			"mesh":0,
			"name":"Cube"
		},
		{
			"mesh":1,
			"name":"Cylinder",
			"translation":[
				0,
				0.15234257280826569,
				0
			]
		}
	],
	"meshes":[
		{
			"name":"Cube.002",
			"primitives":[
				{
					"attributes":{
						"POSITION":0,
						"NORMAL":1,
						"TEXCOORD_0":2
					},
					"indices":3
				}
			]
		},
		{
			"name":"Cylinder",
			"primitives":[
				{
					"attributes":{
						"POSITION":4,
						"NORMAL":5,
						"TEXCOORD_0":6
					},
					"indices":7
				}
			]
		}
	],
	"accessors":[
		{
			"bufferView":0,
			"componentType":5126,
			"count":128,
			"max":[
				0.7197065353393555,
				0.19999998807907104,
				1.0640954971313477
			],
			"min":[
				-0.7197065353393555,
				-0.24669510126113892,
				-1.0640954971313477
			],
			"type":"VEC3"
		},
		{
			"bufferView":1,
			"componentType":5126,
			"count":128,
			"type":"VEC3"
		},
		{
			"bufferView":2,
			"componentType":5126,
			"count":128,
			"type":"VEC2"
		},
		{
			"bufferView":3,
			"componentType":5123,
			"count":252,
			"type":"SCALAR"
		},
		{
			"bufferView":4,
			"componentType":5126,
			"count":50,
			"max":[
				0.23999997973442078,
				0.0240000132471323,
				0.23999999463558197
			],
			"min":[
				-0.24000000953674316,
				-0.024000002071261406,
				-0.23999999463558197
			],
			"type":"VEC3"
		},
		{
			"bufferView":5,
			"componentType":5126,
			"count":50,
			"type":"VEC3"
		},
		{
			"bufferView":6,
			"componentType":5126,
			"count":50,
			"type":"VEC2"
		},
		{
			"bufferView":7,
			"componentType":5123,
			"count":132,
			"type":"SCALAR"
		}
	],
	"bufferViews":[
		{
			"buffer":0,
			"byteLength":1536,
			"byteOffset":0,
			"target":34962
		},
		{
			"buffer":0,
			"byteLength":1536,
			"byteOffset":1536,
			"target":34962
		},
		{
			"buffer":0,
			"byteLength":1024,
			"byteOffset":3072,
			"target":34962
		},
		{
			"buffer":0,
			"byteLength":504,
			"byteOffset":4096,
			"target":34963
		},
		{
			"buffer":0,
			"byteLength":600,
			"byteOffset":4600,
			"target":34962
		},
		{
			"buffer":0,
			"byteLength":600,
			"byteOffset":5200,
			"target":34962
		},
		{
			"buffer":0,
			"byteLength":400,
			"byteOffset":5800,
			"target":34962
		},
		{
			"buffer":0,
			"byteLength":264,
			"byteOffset":6200,
			"target":34963
		}
	],
	"buffers":[
		{
			"byteLength":6464,
			"uri":"generator-7304b3066ea094c42b4556e0503957e2.bin"
		}
	]
}
