{
	"asset":{
		"generator":"Khronos glTF Blender I/O v5.2.39",
		"version":"2.0"
	},
	"scene":0,
	"scenes":[
		{
			"name":"Scene",
			"nodes":[
				0,
				1,
				2
			]
		}
	],
	"nodes":[
		{
			"mesh":0,
			"name":"korpus"
		},
		{
			"mesh":1,
			"name":"korpus_solid"
		},
		{
			"mesh":2,
			"name":"tumbler",
			"rotation":[
				0.7071068286895752,
				0,
				0,
				0.7071068286895752
			],
			"translation":[
				0.19810938835144043,
				-0.056979116052389145,
				0
			]
		}
	],
	"meshes":[
		{
			"name":"Cube.001",
			"primitives":[
				{
					"attributes":{
						"POSITION":0,
						"NORMAL":1,
						"TEXCOORD_0":2
					},
					"indices":3
				}
			]
		},
		{
			"name":"Cube.002",
			"primitives":[
				{
					"attributes":{
						"POSITION":4,
						"NORMAL":5,
						"TEXCOORD_0":6
					},
					"indices":7
				}
			]
		},
		{
			"name":"Cylinder",
			"primitives":[
				{
					"attributes":{
						"POSITION":8,
						"NORMAL":9,
						"TEXCOORD_0":10
					},
					"indices":11
				}
			]
		}
	],
	"accessors":[
		{
			"bufferView":0,
			"componentType":5126,
			"count":136,
			"max":[
				0.23073887825012207,
				0.2992129623889923,
				0.09999893605709076
			],
			"min":[
				-0.1412428617477417,
				-0.29878711700439453,
				-0.10000108182430267
			],
			"type":"VEC3"
		},
		{
			"bufferView":1,
			"componentType":5126,
			"count":136,
			"type":"VEC3"
		},
		{
			"bufferView":2,
			"componentType":5126,
			"count":136,
			"type":"VEC2"
		},
		{
			"bufferView":3,
			"componentType":5123,
			"count":300,
			"type":"SCALAR"
		},
		{
			"bufferView":4,
			"componentType":5126,
			"count":164,
			"max":[
				0.18482710421085358,
				0.30498647689819336,
				0.10904427617788315
			],
			"min":[
				-0.14831392467021942,
				-0.3045606315135956,
				-0.10904642194509506
			],
			"type":"VEC3"
		},
		{
			"bufferView":5,
			"componentType":5126,
			"count":164,
			"type":"VEC3"
		},
		{
			"bufferView":6,
			"componentType":5126,
			"count":164,
			"type":"VEC2"
		},
		{
			"bufferView":7,
			"componentType":5123,
			"count":312,
			"type":"SCALAR"
		},
		{
			"bufferView":8,
			"componentType":5126,
			"count":96,
			"max":[
				0.07636487483978271,
				0.09123066812753677,
				0.047776006162166595
			],
			"min":[
				-0.054949790239334106,
				-0.09136422723531723,
				-0.04778314381837845
			],
			"type":"VEC3"
		},
		{
			"bufferView":9,
			"componentType":5126,
			"count":96,
			"type":"VEC3"
		},
		{
			"bufferView":10,
			"componentType":5126,
			"count":96,
			"type":"VEC2"
		},
		{
			"bufferView":11,
			"componentType":5123,
			"count":204,
			"type":"SCALAR"
		}
	],
	"bufferViews":[
		{
			"buffer":0,
			"byteLength":1632,
			"byteOffset":0,
			"target":34962
		},
		{
			"buffer":0,
			"byteLength":1632,
			"byteOffset":1632,
			"target":34962
		},
		{
			"buffer":0,
			"byteLength":1088,
			"byteOffset":3264,
			"target":34962
		},
		{
			"buffer":0,
			"byteLength":600,
			"byteOffset":4352,
			"target":34963
		},
		{
			"buffer":0,
			"byteLength":1968,
			"byteOffset":4952,
			"target":34962
		},
		{
			"buffer":0,
			"byteLength":1968,
			"byteOffset":6920,
			"target":34962
		},
		{
			"buffer":0,
			"byteLength":1312,
			"byteOffset":8888,
			"target":34962
		},
		{
			"buffer":0,
			"byteLength":624,
			"byteOffset":10200,
			"target":34963
		},
		{
			"buffer":0,
			"byteLength":1152,
			"byteOffset":10824,
			"target":34962
		},
		{
			"buffer":0,
			"byteLength":1152,
			"byteOffset":11976,
			"target":34962
		},
		{
			"buffer":0,
			"byteLength":768,
			"byteOffset":13128,
			"target":34962
		},
		{
			"buffer":0,
			"byteLength":408,
			"byteOffset":13896,
			"target":34963
		}
	],
	"buffers":[
		{
			"byteLength":14304,
			"uri":"tumbler-45a4a980c8c10d7080abc02164f51a8e.bin"
		}
	]
}
