{
  "accessors": [
    {
      "bufferView": 0,
      "componentType": 5125,
      "count": 1872,
      "type": "SCALAR"
    },
    {
      "bufferView": 1,
      "componentType": 5126,
      "count": 448,
      "max": [
        1.21472930908203,
        1.63160443305969,
        2.49067735671997
      ],
      "min": [
        -1.21472549438477,
        -4.03622913360596,
        0.118035316467285
      ],
      "type": "VEC3"
    },
    {
      "bufferView": 2,
      "componentType": 5126,
      "count": 448,
      "type": "VEC3"
    },
    {
      "bufferView": 3,
      "componentType": 5126,
      "count": 448,
      "type": "VEC4"
    },
    {
      "bufferView": 4,
      "componentType": 5126,
      "count": 448,
      "type": "VEC2"
    },
    {
      "bufferView": 5,
      "componentType": 5125,
      "count": 1128,
      "type": "SCALAR"
    },
    {
      "bufferView": 6,
      "componentType": 5126,
      "count": 359,
      "max": [
        1.07759058475494,
        0.183836966753006,
        2.18176698684692
      ],
      "min": [
        -1.07758641242981,
        -2.70798373222351,
        -0.756322860717773
      ],
      "type": "VEC3"
    },
    {
      "bufferView": 7,
      "componentType": 5126,
      "count": 359,
      "type": "VEC3"
    },
    {
      "bufferView": 8,
      "componentType": 5126,
      "count": 359,
      "type": "VEC4"
    },
    {
      "bufferView": 9,
      "componentType": 5126,
      "count": 359,
      "type": "VEC2"
    },
    {
      "bufferView": 10,
      "componentType": 5125,
      "count": 1287,
      "type": "SCALAR"
    },
    {
      "bufferView": 11,
      "componentType": 5126,
      "count": 380,
      "max": [
        2.59832191467285,
        2.09522223472595,
        2.77823185920715
      ],
      "min": [
        -2.59832191467285,
        -2.10970640182495,
        -7.17619705200195
      ],
      "type": "VEC3"
    },
    {
      "bufferView": 12,
      "componentType": 5126,
      "count": 380,
      "type": "VEC3"
    },
    {
      "bufferView": 13,
      "componentType": 5126,
      "count": 380,
      "type": "VEC4"
    },
    {
      "bufferView": 14,
      "componentType": 5126,
      "count": 380,
      "type": "VEC2"
    },
    {
      "bufferView": 15,
      "componentType": 5125,
      "count": 84,
      "type": "SCALAR"
    },
    {
      "bufferView": 16,
      "componentType": 5126,
      "count": 42,
      "max": [
        2.47350668907166,
        0.316391825675964,
        1.96827507019043
      ],
      "min": [
        -5.08723926544189,
        -0.291391372680664,
        -4.82303810119629
      ],
      "type": "VEC3"
    },
    {
      "bufferView": 17,
      "componentType": 5126,
      "count": 42,
      "type": "VEC3"
    },
    {
      "bufferView": 18,
      "componentType": 5126,
      "count": 42,
      "type": "VEC4"
    },
    {
      "bufferView": 19,
      "componentType": 5126,
      "count": 42,
      "type": "VEC2"
    },
    {
      "bufferView": 20,
      "componentType": 5125,
      "count": 12,
      "type": "SCALAR"
    },
    {
      "bufferView": 21,
      "componentType": 5126,
      "count": 6,
      "max": [
        0.868592143058777,
        0.260044813156128,
        -7.05438184738159
      ],
      "min": [
        -0.868592023849487,
        0.157917618751526,
        -14.318078994751
      ],
      "type": "VEC3"
    },
    {
      "bufferView": 22,
      "componentType": 5126,
      "count": 6,
      "type": "VEC3"
    },
    {
      "bufferView": 23,
      "componentType": 5126,
      "count": 6,
      "type": "VEC4"
    },
    {
      "bufferView": 24,
      "componentType": 5126,
      "count": 6,
      "type": "VEC2"
    },
    {
      "bufferView": 25,
      "componentType": 5125,
      "count": 84,
      "type": "SCALAR"
    },
    {
      "bufferView": 26,
      "componentType": 5126,
      "count": 42,
      "max": [
        1.22527873516083,
        0.25447416305542,
        1.04209840297699
      ],
      "min": [
        -3.9485228061676,
        -0.165842533111572,
        -4.24566268920898
      ],
      "type": "VEC3"
    },
    {
      "bufferView": 27,
      "componentType": 5126,
      "count": 42,
      "type": "VEC3"
    },
    {
      "bufferView": 28,
      "componentType": 5126,
      "count": 42,
      "type": "VEC4"
    },
    {
      "bufferView": 29,
      "componentType": 5126,
      "count": 42,
      "type": "VEC2"
    },
    {
      "bufferView": 30,
      "componentType": 5125,
      "count": 84,
      "type": "SCALAR"
    },
    {
      "bufferView": 31,
      "componentType": 5126,
      "count": 42,
      "max": [
        2.20477962493896,
        0.815508961677551,
        1.05020809173584
      ],
      "min": [
        -2.79932451248169,
        -0.355244874954224,
        -4.17949771881104
      ],
      "type": "VEC3"
    },
    {
      "bufferView": 32,
      "componentType": 5126,
      "count": 42,
      "type": "VEC3"
    },
    {
      "bufferView": 33,
      "componentType": 5126,
      "count": 42,
      "type": "VEC4"
    },
    {
      "bufferView": 34,
      "componentType": 5126,
      "count": 42,
      "type": "VEC2"
    },
    {
      "bufferView": 35,
      "componentType": 5125,
      "count": 5016,
      "type": "SCALAR"
    },
    {
      "bufferView": 36,
      "componentType": 5126,
      "count": 1558,
      "max": [
        3.16315650939941,
        5.91251039505005,
        -4.92154693603516
      ],
      "min": [
        -3.16315722465515,
        0.162638664245605,
        -8.17898273468018
      ],
      "type": "VEC3"
    },
    {
      "bufferView": 37,
      "componentType": 5126,
      "count": 1558,
      "type": "VEC3"
    },
    {
      "bufferView": 38,
      "componentType": 5126,
      "count": 1558,
      "type": "VEC4"
    },
    {
      "bufferView": 39,
      "componentType": 5126,
      "count": 1558,
      "type": "VEC2"
    }
  ],
  "asset": {
    "generator": "Adobe Substance 3D Painter 12.0.2",
    "version": "2.0"
  },
  "bufferViews": [
    {
      "buffer": 0,
      "byteLength": 7488,
      "target": 34963
    },
    {
      "buffer": 0,
      "byteLength": 5376,
      "byteOffset": 7488,
      "target": 34962
    },
    {
      "buffer": 0,
      "byteLength": 5376,
      "byteOffset": 12864,
      "target": 34962
    },
    {
      "buffer": 0,
      "byteLength": 7168,
      "byteOffset": 18240,
      "target": 34962
    },
    {
      "buffer": 0,
      "byteLength": 3584,
      "byteOffset": 25408,
      "target": 34962
    },
    {
      "buffer": 0,
      "byteLength": 4512,
      "byteOffset": 28992,
      "target": 34963
    },
    {
      "buffer": 0,
      "byteLength": 4308,
      "byteOffset": 33504,
      "target": 34962
    },
    {
      "buffer": 0,
      "byteLength": 4308,
      "byteOffset": 37812,
      "target": 34962
    },
    {
      "buffer": 0,
      "byteLength": 5744,
      "byteOffset": 42120,
      "target": 34962
    },
    {
      "buffer": 0,
      "byteLength": 2872,
      "byteOffset": 47864,
      "target": 34962
    },
    {
      "buffer": 0,
      "byteLength": 5148,
      "byteOffset": 50736,
      "target": 34963
    },
    {
      "buffer": 0,
      "byteLength": 4560,
      "byteOffset": 55884,
      "target": 34962
    },
    {
      "buffer": 0,
      "byteLength": 4560,
      "byteOffset": 60444,
      "target": 34962
    },
    {
      "buffer": 0,
      "byteLength": 6080,
      "byteOffset": 65004,
      "target": 34962
    },
    {
      "buffer": 0,
      "byteLength": 3040,
      "byteOffset": 71084,
      "target": 34962
    },
    {
      "buffer": 0,
      "byteLength": 336,
      "byteOffset": 74124,
      "target": 34963
    },
    {
      "buffer": 0,
      "byteLength": 504,
      "byteOffset": 74460,
      "target": 34962
    },
    {
      "buffer": 0,
      "byteLength": 504,
      "byteOffset": 74964,
      "target": 34962
    },
    {
      "buffer": 0,
      "byteLength": 672,
      "byteOffset": 75468,
      "target": 34962
    },
    {
      "buffer": 0,
      "byteLength": 336,
      "byteOffset": 76140,
      "target": 34962
    },
    {
      "buffer": 0,
      "byteLength": 48,
      "byteOffset": 76476,
      "target": 34963
    },
    {
      "buffer": 0,
      "byteLength": 72,
      "byteOffset": 76524,
      "target": 34962
    },
    {
      "buffer": 0,
      "byteLength": 72,
      "byteOffset": 76596,
      "target": 34962
    },
    {
      "buffer": 0,
      "byteLength": 96,
      "byteOffset": 76668,
      "target": 34962
    },
    {
      "buffer": 0,
      "byteLength": 48,
      "byteOffset": 76764,
      "target": 34962
    },
    {
      "buffer": 0,
      "byteLength": 336,
      "byteOffset": 76812,
      "target": 34963
    },
    {
      "buffer": 0,
      "byteLength": 504,
      "byteOffset": 77148,
      "target": 34962
    },
    {
      "buffer": 0,
      "byteLength": 504,
      "byteOffset": 77652,
      "target": 34962
    },
    {
      "buffer": 0,
      "byteLength": 672,
      "byteOffset": 78156,
      "target": 34962
    },
    {
      "buffer": 0,
      "byteLength": 336,
      "byteOffset": 78828,
      "target": 34962
    },
    {
      "buffer": 0,
      "byteLength": 336,
      "byteOffset": 79164,
      "target": 34963
    },
    {
      "buffer": 0,
      "byteLength": 504,
      "byteOffset": 79500,
      "target": 34962
    },
    {
      "buffer": 0,
      "byteLength": 504,
      "byteOffset": 80004,
      "target": 34962
    },
    {
      "buffer": 0,
      "byteLength": 672,
      "byteOffset": 80508,
      "target": 34962
    },
    {
      "buffer": 0,
      "byteLength": 336,
      "byteOffset": 81180,
      "target": 34962
    },
    {
      "buffer": 0,
      "byteLength": 20064,
      "byteOffset": 81516,
      "target": 34963
    },
    {
      "buffer": 0,
      "byteLength": 18696,
      "byteOffset": 101580,
      "target": 34962
    },
    {
      "buffer": 0,
      "byteLength": 18696,
      "byteOffset": 120276,
      "target": 34962
    },
    {
      "buffer": 0,
      "byteLength": 24928,
      "byteOffset": 138972,
      "target": 34962
    },
    {
      "buffer": 0,
      "byteLength": 12464,
      "byteOffset": 163900,
      "target": 34962
    }
  ],
  "buffers": [
    {
      "byteLength": 176364,
      "uri": "Untitled.bin"
    }
  ],
  "images": [
    {
      "uri": "vorona_baseColor.png"
    },
    {
      "uri": "vorona_occlusionRoughnessMetallic.png"
    },
    {
      "uri": "vorona_normal.png"
    },
    {
      "uri": "лапы_baseColor.png"
    },
    {
      "uri": "лапы_occlusionRoughnessMetallic.png"
    },
    {
      "uri": "лапы_normal.png"
    }
  ],
  "materials": [
    {
      "alphaMode": "BLEND",
      "name": "vorona",
      "normalTexture": {
        "index": 2
      },
      "occlusionTexture": {
        "index": 1
      },
      "pbrMetallicRoughness": {
        "baseColorTexture": {
          "index": 0
        },
        "metallicRoughnessTexture": {
          "index": 1
        }
      }
    },
    {
      "alphaMode": "BLEND",
      "name": "лапы",
      "normalTexture": {
        "index": 5
      },
      "occlusionTexture": {
        "index": 4
      },
      "pbrMetallicRoughness": {
        "baseColorTexture": {
          "index": 3
        },
        "metallicRoughnessTexture": {
          "index": 4
        }
      }
    }
  ],
  "meshes": [
    {
      "name": "Cube.001",
      "primitives": [
        {
          "attributes": {
            "NORMAL": 2,
            "POSITION": 1,
            "TANGENT": 3,
            "TEXCOORD_0": 4
          },
          "indices": 0,
          "material": 0,
          "mode": 4
        }
      ]
    },
    {
      "name": "Cube",
      "primitives": [
        {
          "attributes": {
            "NORMAL": 7,
            "POSITION": 6,
            "TANGENT": 8,
            "TEXCOORD_0": 9
          },
          "indices": 5,
          "material": 0,
          "mode": 4
        }
      ]
    },
    {
      "name": "Cube.003",
      "primitives": [
        {
          "attributes": {
            "NORMAL": 12,
            "POSITION": 11,
            "TANGENT": 13,
            "TEXCOORD_0": 14
          },
          "indices": 10,
          "material": 0,
          "mode": 4
        }
      ]
    },
    {
      "name": "Cube.004",
      "primitives": [
        {
          "attributes": {
            "NORMAL": 17,
            "POSITION": 16,
            "TANGENT": 18,
            "TEXCOORD_0": 19
          },
          "indices": 15,
          "material": 0,
          "mode": 4
        }
      ]
    },
    {
      "name": "Cube.005",
      "primitives": [
        {
          "attributes": {
            "NORMAL": 22,
            "POSITION": 21,
            "TANGENT": 23,
            "TEXCOORD_0": 24
          },
          "indices": 20,
          "material": 0,
          "mode": 4
        }
      ]
    },
    {
      "name": "Cube.009",
      "primitives": [
        {
          "attributes": {
            "NORMAL": 27,
            "POSITION": 26,
            "TANGENT": 28,
            "TEXCOORD_0": 29
          },
          "indices": 25,
          "material": 0,
          "mode": 4
        }
      ]
    },
    {
      "name": "Cube.010",
      "primitives": [
        {
          "attributes": {
            "NORMAL": 32,
            "POSITION": 31,
            "TANGENT": 33,
            "TEXCOORD_0": 34
          },
          "indices": 30,
          "material": 0,
          "mode": 4
        }
      ]
    },
    {
      "name": "Cylinder",
      "primitives": [
        {
          "attributes": {
            "NORMAL": 37,
            "POSITION": 36,
            "TANGENT": 38,
            "TEXCOORD_0": 39
          },
          "indices": 35,
          "material": 1,
          "mode": 4
        }
      ]
    }
  ],
  "nodes": [
    {
      "children": [
        1,
        3,
        5,
        7,
        9,
        11,
        13,
        15
      ],
      "name": "ROOT"
    },
    {
      "children": [
        2
      ],
      "name": "skull",
      "rotation": [
        -0.291588842868805,
        0.018091507256031,
        -0.0101423477753997,
        0.956318855285645
      ],
      "scale": [
        0.0840569511055946,
        0.0840569362044334,
        0.0840569511055946
      ],
      "translation": [
        -0.0139821134507656,
        0.4434594810009,
        0.466321110725403
      ]
    },
    {
      "mesh": 0,
      "name": "Cube.001"
    },
    {
      "children": [
        4
      ],
      "name": "jaw",
      "rotation": [
        -0.169612184166908,
        0.0166799463331699,
        -0.0123267732560635,
        0.985292613506317
      ],
      "scale": [
        0.0840569511055946,
        0.0840569511055946,
        0.0840569585561752
      ],
      "translation": [
        -0.0125563703477383,
        0.47144690155983,
        0.486758440732956
      ]
    },
    {
      "mesh": 1,
      "name": "Cube"
    },
    {
      "children": [
        6
      ],
      "name": "Cube",
      "rotation": [
        -0.0797855630517006,
        0.0140716396272182,
        -0.00167150166817009,
        0.996711313724518
      ],
      "scale": [
        0.084056943655014,
        0.0840569585561752,
        0.0840569287538528
      ],
      "translation": [
        -0.0143358372151852,
        0.531283318996429,
        0.231156945228577
      ]
    },
    {
      "mesh": 2,
      "name": "Cube.003"
    },
    {
      "children": [
        8
      ],
      "name": "Cube.003",
      "rotation": [
        -0.0977015197277069,
        -0.30848503112793,
        -0.0386884994804859,
        0.945407092571259
      ],
      "scale": [
        0.0840569362044334,
        0.0840569585561752,
        0.0840569511055946
      ],
      "translation": [
        -0.0369543395936489,
        0.401480287313461,
        -0.356557130813599
      ]
    },
    {
      "mesh": 3,
      "name": "Cube.004"
    },
    {
      "children": [
        10
      ],
      "name": "Cube.004",
      "rotation": [
        -0.091196246445179,
        0.0140898544341326,
        -0.00151022057980299,
        0.995732128620148
      ],
      "scale": [
        0.084056943655014,
        0.0840569362044334,
        0.0840569585561752
      ],
      "translation": [
        -0.013312216848135,
        0.472651958465576,
        0.27975594997406
      ]
    },
    {
      "mesh": 4,
      "name": "Cube.005"
    },
    {
      "children": [
        12
      ],
      "name": "Cube.006",
      "rotation": [
        -0.112325564026833,
        -0.0321652330458164,
        -0.0545071139931679,
        0.991653859615326
      ],
      "scale": [
        0.0840569511055946,
        0.0840569511055946,
        0.0840569511055946
      ],
      "translation": [
        -0.051290538161993,
        0.451269149780273,
        -0.289690256118774
      ]
    },
    {
      "mesh": 5,
      "name": "Cube.009"
    },
    {
      "children": [
        14
      ],
      "name": "Cube.007",
      "rotation": [
        -0.0610522702336311,
        -0.099474661052227,
        0.0353167243301868,
        0.992537260055542
      ],
      "scale": [
        0.0840569511055946,
        0.084056943655014,
        0.084056943655014
      ],
      "translation": [
        0.177079200744629,
        0.448759526014328,
        -0.293657779693604
      ]
    },
    {
      "mesh": 6,
      "name": "Cube.010"
    },
    {
      "children": [
        16
      ],
      "name": "leg",
      "rotation": [
        -0.0743838474154472,
        0.0131975999101996,
        -0.000992797198705375,
        0.99714183807373
      ],
      "scale": [
        0.0840569734573364,
        0.084056943655014,
        0.0840569362044334
      ],
      "translation": [
        -0.00113698467612267,
        -0.00186383724212646,
        0.722209274768829
      ]
    },
    {
      "mesh": 7,
      "name": "Cylinder"
    }
  ],
  "samplers": [
    {
      "magFilter": 9729,
      "minFilter": 9985,
      "wrapS": 10497,
      "wrapT": 10497
    }
  ],
  "scene": 0,
  "scenes": [
    {
      "name": "Scene",
      "nodes": [
        0
      ]
    }
  ],
  "textures": [
    {
      "sampler": 0,
      "source": 0
    },
    {
      "sampler": 0,
      "source": 1
    },
    {
      "sampler": 0,
      "source": 2
    },
    {
      "sampler": 0,
      "source": 3
    },
    {
      "sampler": 0,
      "source": 4
    },
    {
      "sampler": 0,
      "source": 5
    }
  ]
}