{
  "accessors": [
    {
      "bufferView": 0,
      "componentType": 5125,
      "count": 36,
      "type": "SCALAR"
    },
    {
      "bufferView": 1,
      "componentType": 5126,
      "count": 18,
      "max": [
        6.21339654922485,
        -1.19209289550781e-07,
        5.36000061035156
      ],
      "min": [
        -6.78415822982788,
        -1.19209289550781e-07,
        -2.27457666397095
      ],
      "type": "VEC3"
    },
    {
      "bufferView": 2,
      "componentType": 5126,
      "count": 18,
      "type": "VEC3"
    },
    {
      "bufferView": 3,
      "componentType": 5126,
      "count": 18,
      "type": "VEC4"
    },
    {
      "bufferView": 4,
      "componentType": 5126,
      "count": 18,
      "type": "VEC2"
    },
    {
      "bufferView": 5,
      "componentType": 5125,
      "count": 36,
      "type": "SCALAR"
    },
    {
      "bufferView": 6,
      "componentType": 5126,
      "count": 24,
      "max": [
        1.44999980926514,
        1.39999997615814,
        0.23834490776062
      ],
      "min": [
        -1.45000028610229,
        -1.40000009536743,
        -0.238345384597778
      ],
      "type": "VEC3"
    },
    {
      "bufferView": 7,
      "componentType": 5126,
      "count": 24,
      "type": "VEC3"
    },
    {
      "bufferView": 8,
      "componentType": 5126,
      "count": 24,
      "type": "VEC4"
    },
    {
      "bufferView": 9,
      "componentType": 5126,
      "count": 24,
      "type": "VEC2"
    },
    {
      "bufferView": 10,
      "componentType": 5125,
      "count": 432,
      "type": "SCALAR"
    },
    {
      "bufferView": 11,
      "componentType": 5126,
      "count": 212,
      "max": [
        6.76619672775269,
        1.7330766916275,
        3.2167055606842
      ],
      "min": [
        -6.80624389648438,
        -1.40928018093109,
        -4.19551658630371
      ],
      "type": "VEC3"
    },
    {
      "bufferView": 12,
      "componentType": 5126,
      "count": 212,
      "type": "VEC3"
    },
    {
      "bufferView": 13,
      "componentType": 5126,
      "count": 212,
      "type": "VEC4"
    },
    {
      "bufferView": 14,
      "componentType": 5126,
      "count": 212,
      "type": "VEC2"
    },
    {
      "bufferView": 15,
      "componentType": 5125,
      "count": 504,
      "type": "SCALAR"
    },
    {
      "bufferView": 16,
      "componentType": 5126,
      "count": 250,
      "max": [
        0.0549325942993164,
        0.602926313877106,
        0.639300346374512
      ],
      "min": [
        -0.0138044357299805,
        -0.596439301967621,
        -0.63388729095459
      ],
      "type": "VEC3"
    },
    {
      "bufferView": 17,
      "componentType": 5126,
      "count": 250,
      "type": "VEC3"
    },
    {
      "bufferView": 18,
      "componentType": 5126,
      "count": 250,
      "type": "VEC4"
    },
    {
      "bufferView": 19,
      "componentType": 5126,
      "count": 250,
      "type": "VEC2"
    },
    {
      "bufferView": 20,
      "componentType": 5125,
      "count": 12,
      "type": "SCALAR"
    },
    {
      "bufferView": 21,
      "componentType": 5126,
      "count": 8,
      "max": [
        -0.0138044357299805,
        0.518970787525177,
        0.562909126281738
      ],
      "min": [
        -0.0138044357299805,
        -0.518360614776611,
        -0.562079906463623
      ],
      "type": "VEC3"
    },
    {
      "bufferView": 22,
      "componentType": 5126,
      "count": 8,
      "type": "VEC3"
    },
    {
      "bufferView": 23,
      "componentType": 5126,
      "count": 8,
      "type": "VEC4"
    },
    {
      "bufferView": 24,
      "componentType": 5126,
      "count": 8,
      "type": "VEC2"
    },
    {
      "bufferView": 25,
      "componentType": 5125,
      "count": 288,
      "type": "SCALAR"
    },
    {
      "bufferView": 26,
      "componentType": 5126,
      "count": 116,
      "max": [
        1.2741117477417,
        2.64235687255859,
        0.500000476837158
      ],
      "min": [
        -1.41192770004272,
        -0.5,
        0.277645111083984
      ],
      "type": "VEC3"
    },
    {
      "bufferView": 27,
      "componentType": 5126,
      "count": 116,
      "type": "VEC3"
    },
    {
      "bufferView": 28,
      "componentType": 5126,
      "count": 116,
      "type": "VEC4"
    },
    {
      "bufferView": 29,
      "componentType": 5126,
      "count": 116,
      "type": "VEC2"
    },
    {
      "bufferView": 30,
      "componentType": 5125,
      "count": 36,
      "type": "SCALAR"
    },
    {
      "bufferView": 31,
      "componentType": 5126,
      "count": 24,
      "max": [
        1.01713132858276,
        1.30000007152557,
        0.500000476837158
      ],
      "min": [
        -1.1491265296936,
        -0.5,
        -0.198579788208008
      ],
      "type": "VEC3"
    },
    {
      "bufferView": 32,
      "componentType": 5126,
      "count": 24,
      "type": "VEC3"
    },
    {
      "bufferView": 33,
      "componentType": 5126,
      "count": 24,
      "type": "VEC4"
    },
    {
      "bufferView": 34,
      "componentType": 5126,
      "count": 24,
      "type": "VEC2"
    },
    {
      "bufferView": 35,
      "componentType": 5125,
      "count": 228,
      "type": "SCALAR"
    },
    {
      "bufferView": 36,
      "componentType": 5126,
      "count": 108,
      "max": [
        0.865036487579346,
        2.30000019073486,
        0.5
      ],
      "min": [
        -1.00558280944824,
        -0.5,
        -0.268458843231201
      ],
      "type": "VEC3"
    },
    {
      "bufferView": 37,
      "componentType": 5126,
      "count": 108,
      "type": "VEC3"
    },
    {
      "bufferView": 38,
      "componentType": 5126,
      "count": 108,
      "type": "VEC4"
    },
    {
      "bufferView": 39,
      "componentType": 5126,
      "count": 108,
      "type": "VEC2"
    },
    {
      "bufferView": 40,
      "componentType": 5125,
      "count": 228,
      "type": "SCALAR"
    },
    {
      "bufferView": 41,
      "componentType": 5126,
      "count": 88,
      "max": [
        0.0624160766601562,
        0.421149343252182,
        0.0624141693115234
      ],
      "min": [
        -0.0624165534973145,
        -0.341913253068924,
        -0.0624179840087891
      ],
      "type": "VEC3"
    },
    {
      "bufferView": 42,
      "componentType": 5126,
      "count": 88,
      "type": "VEC3"
    },
    {
      "bufferView": 43,
      "componentType": 5126,
      "count": 88,
      "type": "VEC4"
    },
    {
      "bufferView": 44,
      "componentType": 5126,
      "count": 88,
      "type": "VEC2"
    },
    {
      "bufferView": 45,
      "componentType": 5125,
      "count": 828,
      "type": "SCALAR"
    },
    {
      "bufferView": 46,
      "componentType": 5126,
      "count": 299,
      "max": [
        0.231931686401367,
        0.50786691904068,
        0.231929779052734
      ],
      "min": [
        -0.231932163238525,
        -0.0579829216003418,
        -0.231933116912842
      ],
      "type": "VEC3"
    },
    {
      "bufferView": 47,
      "componentType": 5126,
      "count": 299,
      "type": "VEC3"
    },
    {
      "bufferView": 48,
      "componentType": 5126,
      "count": 299,
      "type": "VEC4"
    },
    {
      "bufferView": 49,
      "componentType": 5126,
      "count": 299,
      "type": "VEC2"
    },
    {
      "bufferView": 50,
      "componentType": 5125,
      "count": 804,
      "type": "SCALAR"
    },
    {
      "bufferView": 51,
      "componentType": 5126,
      "count": 318,
      "max": [
        0.129945755004883,
        0.438385248184204,
        0.247143745422363
      ],
      "min": [
        -0.129946231842041,
        0.23551881313324,
        0.182714462280273
      ],
      "type": "VEC3"
    },
    {
      "bufferView": 52,
      "componentType": 5126,
      "count": 318,
      "type": "VEC3"
    },
    {
      "bufferView": 53,
      "componentType": 5126,
      "count": 318,
      "type": "VEC4"
    },
    {
      "bufferView": 54,
      "componentType": 5126,
      "count": 318,
      "type": "VEC2"
    },
    {
      "bufferView": 55,
      "componentType": 5125,
      "count": 804,
      "type": "SCALAR"
    },
    {
      "bufferView": 56,
      "componentType": 5126,
      "count": 310,
      "max": [
        0.131850719451904,
        0.145743191242218,
        0.444821834564209
      ],
      "min": [
        -0.131851196289062,
        0.0268125534057617,
        0.381041526794434
      ],
      "type": "VEC3"
    },
    {
      "bufferView": 57,
      "componentType": 5126,
      "count": 310,
      "type": "VEC3"
    },
    {
      "bufferView": 58,
      "componentType": 5126,
      "count": 310,
      "type": "VEC4"
    },
    {
      "bufferView": 59,
      "componentType": 5126,
      "count": 310,
      "type": "VEC2"
    },
    {
      "bufferView": 60,
      "componentType": 5125,
      "count": 108,
      "type": "SCALAR"
    },
    {
      "bufferView": 61,
      "componentType": 5126,
      "count": 48,
      "max": [
        0.0057063102722168,
        0.0249999165534973,
        0.00599956512451172
      ],
      "min": [
        -0.0057063102722168,
        -0.0250000357627869,
        -0.00599908828735352
      ],
      "type": "VEC3"
    },
    {
      "bufferView": 62,
      "componentType": 5126,
      "count": 48,
      "type": "VEC3"
    },
    {
      "bufferView": 63,
      "componentType": 5126,
      "count": 48,
      "type": "VEC4"
    },
    {
      "bufferView": 64,
      "componentType": 5126,
      "count": 48,
      "type": "VEC2"
    },
    {
      "bufferView": 65,
      "componentType": 5125,
      "count": 108,
      "type": "SCALAR"
    },
    {
      "bufferView": 66,
      "componentType": 5126,
      "count": 48,
      "max": [
        0.0057063102722168,
        0.0249998569488525,
        0.00599956512451172
      ],
      "min": [
        -0.0057063102722168,
        -0.0250000357627869,
        -0.00599908828735352
      ],
      "type": "VEC3"
    },
    {
      "bufferView": 67,
      "componentType": 5126,
      "count": 48,
      "type": "VEC3"
    },
    {
      "bufferView": 68,
      "componentType": 5126,
      "count": 48,
      "type": "VEC4"
    },
    {
      "bufferView": 69,
      "componentType": 5126,
      "count": 48,
      "type": "VEC2"
    },
    {
      "bufferView": 70,
      "componentType": 5125,
      "count": 108,
      "type": "SCALAR"
    },
    {
      "bufferView": 71,
      "componentType": 5126,
      "count": 48,
      "max": [
        0.0057063102722168,
        0.0143658518791199,
        0.00599956512451172
      ],
      "min": [
        -0.0057063102722168,
        -0.0143659114837646,
        -0.00599908828735352
      ],
      "type": "VEC3"
    },
    {
      "bufferView": 72,
      "componentType": 5126,
      "count": 48,
      "type": "VEC3"
    },
    {
      "bufferView": 73,
      "componentType": 5126,
      "count": 48,
      "type": "VEC4"
    },
    {
      "bufferView": 74,
      "componentType": 5126,
      "count": 48,
      "type": "VEC2"
    },
    {
      "bufferView": 75,
      "componentType": 5125,
      "count": 108,
      "type": "SCALAR"
    },
    {
      "bufferView": 76,
      "componentType": 5126,
      "count": 48,
      "max": [
        0.0057063102722168,
        0.0143659114837646,
        0.00599956512451172
      ],
      "min": [
        -0.0057063102722168,
        -0.0143659114837646,
        -0.00599908828735352
      ],
      "type": "VEC3"
    },
    {
      "bufferView": 77,
      "componentType": 5126,
      "count": 48,
      "type": "VEC3"
    },
    {
      "bufferView": 78,
      "componentType": 5126,
      "count": 48,
      "type": "VEC4"
    },
    {
      "bufferView": 79,
      "componentType": 5126,
      "count": 48,
      "type": "VEC2"
    },
    {
      "bufferView": 80,
      "componentType": 5125,
      "count": 60,
      "type": "SCALAR"
    },
    {
      "bufferView": 81,
      "componentType": 5126,
      "count": 40,
      "max": [
        0.00769948959350586,
        0.0686549544334412,
        0.0152325630187988
      ],
      "min": [
        -0.0231094360351562,
        -0.0689784288406372,
        -0.0113039016723633
      ],
      "type": "VEC3"
    },
    {
      "bufferView": 82,
      "componentType": 5126,
      "count": 40,
      "type": "VEC3"
    },
    {
      "bufferView": 83,
      "componentType": 5126,
      "count": 40,
      "type": "VEC4"
    },
    {
      "bufferView": 84,
      "componentType": 5126,
      "count": 40,
      "type": "VEC2"
    },
    {
      "bufferView": 85,
      "componentType": 5125,
      "count": 60,
      "type": "SCALAR"
    },
    {
      "bufferView": 86,
      "componentType": 5126,
      "count": 40,
      "max": [
        0.00353193283081055,
        0.036684513092041,
        0.00918102264404297
      ],
      "min": [
        -0.0122790336608887,
        -0.0356510877609253,
        -0.00521135330200195
      ],
      "type": "VEC3"
    },
    {
      "bufferView": 87,
      "componentType": 5126,
      "count": 40,
      "type": "VEC3"
    },
    {
      "bufferView": 88,
      "componentType": 5126,
      "count": 40,
      "type": "VEC4"
    },
    {
      "bufferView": 89,
      "componentType": 5126,
      "count": 40,
      "type": "VEC2"
    },
    {
      "bufferView": 90,
      "componentType": 5125,
      "count": 4620,
      "type": "SCALAR"
    },
    {
      "bufferView": 91,
      "componentType": 5126,
      "count": 1595,
      "max": [
        12.5724391937256,
        0.612728118896484,
        1.0
      ],
      "min": [
        -1.0,
        -0.199999928474426,
        -13.2915344238281
      ],
      "type": "VEC3"
    },
    {
      "bufferView": 92,
      "componentType": 5126,
      "count": 1595,
      "type": "VEC3"
    },
    {
      "bufferView": 93,
      "componentType": 5126,
      "count": 1595,
      "type": "VEC4"
    },
    {
      "bufferView": 94,
      "componentType": 5126,
      "count": 1595,
      "type": "VEC2"
    },
    {
      "bufferView": 95,
      "componentType": 5125,
      "count": 36,
      "type": "SCALAR"
    },
    {
      "bufferView": 96,
      "componentType": 5126,
      "count": 24,
      "max": [
        1.22280645370483,
        0.512728095054626,
        0.28657054901123
      ],
      "min": [
        -1.46323394775391,
        -0.299999713897705,
        -0.510893821716309
      ],
      "type": "VEC3"
    },
    {
      "bufferView": 97,
      "componentType": 5126,
      "count": 24,
      "type": "VEC3"
    },
    {
      "bufferView": 98,
      "componentType": 5126,
      "count": 24,
      "type": "VEC4"
    },
    {
      "bufferView": 99,
      "componentType": 5126,
      "count": 24,
      "type": "VEC2"
    },
    {
      "bufferView": 100,
      "componentType": 5125,
      "count": 36,
      "type": "SCALAR"
    },
    {
      "bufferView": 101,
      "componentType": 5126,
      "count": 24,
      "max": [
        1.03839826583862,
        0.406363844871521,
        0.738958835601807
      ],
      "min": [
        -1.03839826583862,
        -0.406363964080811,
        -0.738956928253174
      ],
      "type": "VEC3"
    },
    {
      "bufferView": 102,
      "componentType": 5126,
      "count": 24,
      "type": "VEC3"
    },
    {
      "bufferView": 103,
      "componentType": 5126,
      "count": 24,
      "type": "VEC4"
    },
    {
      "bufferView": 104,
      "componentType": 5126,
      "count": 24,
      "type": "VEC2"
    },
    {
      "bufferView": 105,
      "componentType": 5125,
      "count": 225,
      "type": "SCALAR"
    },
    {
      "bufferView": 106,
      "componentType": 5126,
      "count": 122,
      "max": [
        0.489778995513916,
        1.33016765117645,
        0.678471565246582
      ],
      "min": [
        -1.58701753616333,
        -1.46983242034912,
        -0.808099269866943
      ],
      "type": "VEC3"
    },
    {
      "bufferView": 107,
      "componentType": 5126,
      "count": 122,
      "type": "VEC3"
    },
    {
      "bufferView": 108,
      "componentType": 5126,
      "count": 122,
      "type": "VEC4"
    },
    {
      "bufferView": 109,
      "componentType": 5126,
      "count": 122,
      "type": "VEC2"
    },
    {
      "bufferView": 110,
      "componentType": 5125,
      "count": 36,
      "type": "SCALAR"
    },
    {
      "bufferView": 111,
      "componentType": 5126,
      "count": 14,
      "max": [
        0.877126216888428,
        -1.19209289550781e-07,
        0.683935165405273
      ],
      "min": [
        -0.999669551849365,
        -1.19209289550781e-07,
        -0.793980598449707
      ],
      "type": "VEC3"
    },
    {
      "bufferView": 112,
      "componentType": 5126,
      "count": 14,
      "type": "VEC3"
    },
    {
      "bufferView": 113,
      "componentType": 5126,
      "count": 14,
      "type": "VEC4"
    },
    {
      "bufferView": 114,
      "componentType": 5126,
      "count": 14,
      "type": "VEC2"
    },
    {
      "bufferView": 115,
      "componentType": 5125,
      "count": 12,
      "type": "SCALAR"
    },
    {
      "bufferView": 116,
      "componentType": 5126,
      "count": 6,
      "max": [
        6.21339654922485,
        0.0,
        1.15364122390747
      ],
      "min": [
        -6.78415822982788,
        0.0,
        -5.36000156402588
      ],
      "type": "VEC3"
    },
    {
      "bufferView": 117,
      "componentType": 5126,
      "count": 6,
      "type": "VEC3"
    },
    {
      "bufferView": 118,
      "componentType": 5126,
      "count": 6,
      "type": "VEC4"
    },
    {
      "bufferView": 119,
      "componentType": 5126,
      "count": 6,
      "type": "VEC2"
    },
    {
      "bufferView": 120,
      "componentType": 5125,
      "count": 186,
      "type": "SCALAR"
    },
    {
      "bufferView": 121,
      "componentType": 5126,
      "count": 82,
      "max": [
        6.68555593490601,
        1.39850783348083,
        0.862346172332764
      ],
      "min": [
        -6.88688468933105,
        -1.40149235725403,
        -5.65129661560059
      ],
      "type": "VEC3"
    },
    {
      "bufferView": 122,
      "componentType": 5126,
      "count": 82,
      "type": "VEC3"
    },
    {
      "bufferView": 123,
      "componentType": 5126,
      "count": 82,
      "type": "VEC4"
    },
    {
      "bufferView": 124,
      "componentType": 5126,
      "count": 82,
      "type": "VEC2"
    },
    {
      "bufferView": 125,
      "componentType": 5125,
      "count": 204,
      "type": "SCALAR"
    },
    {
      "bufferView": 126,
      "componentType": 5126,
      "count": 106,
      "max": [
        6.76619672775269,
        1.39071989059448,
        3.5253598690033
      ],
      "min": [
        -6.80624389648438,
        -1.40928018093109,
        3.01670527458191
      ],
      "type": "VEC3"
    },
    {
      "bufferView": 127,
      "componentType": 5126,
      "count": 106,
      "type": "VEC3"
    },
    {
      "bufferView": 128,
      "componentType": 5126,
      "count": 106,
      "type": "VEC4"
    },
    {
      "bufferView": 129,
      "componentType": 5126,
      "count": 106,
      "type": "VEC2"
    },
    {
      "bufferView": 130,
      "componentType": 5125,
      "count": 2784,
      "type": "SCALAR"
    },
    {
      "bufferView": 131,
      "componentType": 5126,
      "count": 963,
      "max": [
        0.45441198348999,
        1.3898811340332,
        0.0558977127075195
      ],
      "min": [
        -0.453750133514404,
        -0.651300191879272,
        -0.0464191436767578
      ],
      "type": "VEC3"
    },
    {
      "bufferView": 132,
      "componentType": 5126,
      "count": 963,
      "type": "VEC3"
    },
    {
      "bufferView": 133,
      "componentType": 5126,
      "count": 963,
      "type": "VEC4"
    },
    {
      "bufferView": 134,
      "componentType": 5126,
      "count": 963,
      "type": "VEC2"
    },
    {
      "bufferView": 135,
      "componentType": 5125,
      "count": 36,
      "type": "SCALAR"
    },
    {
      "bufferView": 136,
      "componentType": 5126,
      "count": 24,
      "max": [
        0.366622924804688,
        1.31843292713165,
        0.00214767456054688
      ],
      "min": [
        -0.36596155166626,
        0.176733493804932,
        -0.000950813293457031
      ],
      "type": "VEC3"
    },
    {
      "bufferView": 137,
      "componentType": 5126,
      "count": 24,
      "type": "VEC3"
    },
    {
      "bufferView": 138,
      "componentType": 5126,
      "count": 24,
      "type": "VEC4"
    },
    {
      "bufferView": 139,
      "componentType": 5126,
      "count": 24,
      "type": "VEC2"
    },
    {
      "bufferView": 140,
      "componentType": 5125,
      "count": 36,
      "type": "SCALAR"
    },
    {
      "bufferView": 141,
      "componentType": 5126,
      "count": 24,
      "max": [
        1.05108714103699,
        1.02059042453766,
        0.454080581665039
      ],
      "min": [
        -0.583605289459229,
        -1.02059054374695,
        -0.454082489013672
      ],
      "type": "VEC3"
    },
    {
      "bufferView": 142,
      "componentType": 5126,
      "count": 24,
      "type": "VEC3"
    },
    {
      "bufferView": 143,
      "componentType": 5126,
      "count": 24,
      "type": "VEC4"
    },
    {
      "bufferView": 144,
      "componentType": 5126,
      "count": 24,
      "type": "VEC2"
    },
    {
      "bufferView": 145,
      "componentType": 5125,
      "count": 156,
      "type": "SCALAR"
    },
    {
      "bufferView": 146,
      "componentType": 5126,
      "count": 72,
      "max": [
        0.185030937194824,
        1.79999995231628,
        4.70498847961426
      ],
      "min": [
        -0.0700645446777344,
        -1.0,
        -8.01364231109619
      ],
      "type": "VEC3"
    },
    {
      "bufferView": 147,
      "componentType": 5126,
      "count": 72,
      "type": "VEC3"
    },
    {
      "bufferView": 148,
      "componentType": 5126,
      "count": 72,
      "type": "VEC4"
    },
    {
      "bufferView": 149,
      "componentType": 5126,
      "count": 72,
      "type": "VEC2"
    },
    {
      "bufferView": 150,
      "componentType": 5125,
      "count": 96,
      "type": "SCALAR"
    },
    {
      "bufferView": 151,
      "componentType": 5126,
      "count": 48,
      "max": [
        1.45633792877197,
        1.39999997615814,
        0.127547055482864
      ],
      "min": [
        -1.45633697509766,
        -1.40000009536743,
        -0.127547055482864
      ],
      "type": "VEC3"
    },
    {
      "bufferView": 152,
      "componentType": 5126,
      "count": 48,
      "type": "VEC3"
    },
    {
      "bufferView": 153,
      "componentType": 5126,
      "count": 48,
      "type": "VEC4"
    },
    {
      "bufferView": 154,
      "componentType": 5126,
      "count": 48,
      "type": "VEC2"
    },
    {
      "bufferView": 155,
      "componentType": 5125,
      "count": 36,
      "type": "SCALAR"
    },
    {
      "bufferView": 156,
      "componentType": 5126,
      "count": 24,
      "max": [
        0.420000016689301,
        1.02059054374695,
        1.22601985931396
      ],
      "min": [
        -0.420000225305557,
        -1.02059078216553,
        -1.22601890563965
      ],
      "type": "VEC3"
    },
    {
      "bufferView": 157,
      "componentType": 5126,
      "count": 24,
      "type": "VEC3"
    },
    {
      "bufferView": 158,
      "componentType": 5126,
      "count": 24,
      "type": "VEC4"
    },
    {
      "bufferView": 159,
      "componentType": 5126,
      "count": 24,
      "type": "VEC2"
    },
    {
      "bufferView": 160,
      "componentType": 5125,
      "count": 2784,
      "type": "SCALAR"
    },
    {
      "bufferView": 161,
      "componentType": 5126,
      "count": 963,
      "max": [
        0.454411268234253,
        1.38988125324249,
        0.055898055434227
      ],
      "min": [
        -0.453750848770142,
        -0.651300072669983,
        -0.0464189350605011
      ],
      "type": "VEC3"
    },
    {
      "bufferView": 162,
      "componentType": 5126,
      "count": 963,
      "type": "VEC3"
    },
    {
      "bufferView": 163,
      "componentType": 5126,
      "count": 963,
      "type": "VEC4"
    },
    {
      "bufferView": 164,
      "componentType": 5126,
      "count": 963,
      "type": "VEC2"
    },
    {
      "bufferView": 165,
      "componentType": 5125,
      "count": 36,
      "type": "SCALAR"
    },
    {
      "bufferView": 166,
      "componentType": 5126,
      "count": 24,
      "max": [
        0.366622447967529,
        1.31843304634094,
        0.00214788317680359
      ],
      "min": [
        -0.365961790084839,
        0.176733613014221,
        -0.00095069408416748
      ],
      "type": "VEC3"
    },
    {
      "bufferView": 167,
      "componentType": 5126,
      "count": 24,
      "type": "VEC3"
    },
    {
      "bufferView": 168,
      "componentType": 5126,
      "count": 24,
      "type": "VEC4"
    },
    {
      "bufferView": 169,
      "componentType": 5126,
      "count": 24,
      "type": "VEC2"
    },
    {
      "bufferView": 170,
      "componentType": 5125,
      "count": 2970,
      "type": "SCALAR"
    },
    {
      "bufferView": 171,
      "componentType": 5126,
      "count": 960,
      "max": [
        10.3144121170044,
        1.38208532333374,
        6.53912878036499
      ],
      "min": [
        -0.903102874755859,
        -1.4179151058197,
        -6.81162691116333
      ],
      "type": "VEC3"
    },
    {
      "bufferView": 172,
      "componentType": 5126,
      "count": 960,
      "type": "VEC3"
    },
    {
      "bufferView": 173,
      "componentType": 5126,
      "count": 960,
      "type": "VEC4"
    },
    {
      "bufferView": 174,
      "componentType": 5126,
      "count": 960,
      "type": "VEC2"
    },
    {
      "bufferView": 175,
      "componentType": 5125,
      "count": 2784,
      "type": "SCALAR"
    },
    {
      "bufferView": 176,
      "componentType": 5126,
      "count": 963,
      "max": [
        0.454411745071411,
        1.38988125324249,
        0.0558979511260986
      ],
      "min": [
        -0.453750610351562,
        -0.651300072669983,
        -0.0464193820953369
      ],
      "type": "VEC3"
    },
    {
      "bufferView": 177,
      "componentType": 5126,
      "count": 963,
      "type": "VEC3"
    },
    {
      "bufferView": 178,
      "componentType": 5126,
      "count": 963,
      "type": "VEC4"
    },
    {
      "bufferView": 179,
      "componentType": 5126,
      "count": 963,
      "type": "VEC2"
    },
    {
      "bufferView": 180,
      "componentType": 5125,
      "count": 36,
      "type": "SCALAR"
    },
    {
      "bufferView": 181,
      "componentType": 5126,
      "count": 24,
      "max": [
        0.366622686386108,
        1.31843304634094,
        0.00214815139770508
      ],
      "min": [
        -0.36596155166626,
        0.176733613014221,
        -0.000950336456298828
      ],
      "type": "VEC3"
    },
    {
      "bufferView": 182,
      "componentType": 5126,
      "count": 24,
      "type": "VEC3"
    },
    {
      "bufferView": 183,
      "componentType": 5126,
      "count": 24,
      "type": "VEC4"
    },
    {
      "bufferView": 184,
      "componentType": 5126,
      "count": 24,
      "type": "VEC2"
    },
    {
      "bufferView": 185,
      "componentType": 5125,
      "count": 4620,
      "type": "SCALAR"
    },
    {
      "bufferView": 186,
      "componentType": 5126,
      "count": 1595,
      "max": [
        12.5724382400513,
        0.612728118896484,
        1.0
      ],
      "min": [
        -1.0,
        -0.199999928474426,
        -13.2915344238281
      ],
      "type": "VEC3"
    },
    {
      "bufferView": 187,
      "componentType": 5126,
      "count": 1595,
      "type": "VEC3"
    },
    {
      "bufferView": 188,
      "componentType": 5126,
      "count": 1595,
      "type": "VEC4"
    },
    {
      "bufferView": 189,
      "componentType": 5126,
      "count": 1595,
      "type": "VEC2"
    },
    {
      "bufferView": 190,
      "componentType": 5125,
      "count": 432,
      "type": "SCALAR"
    },
    {
      "bufferView": 191,
      "componentType": 5126,
      "count": 288,
      "max": [
        0.608393669128418,
        0.724348783493042,
        2.86050367355347
      ],
      "min": [
        -0.21336841583252,
        -1.4394588470459,
        0.502742290496826
      ],
      "type": "VEC3"
    },
    {
      "bufferView": 192,
      "componentType": 5126,
      "count": 288,
      "type": "VEC3"
    },
    {
      "bufferView": 193,
      "componentType": 5126,
      "count": 288,
      "type": "VEC4"
    },
    {
      "bufferView": 194,
      "componentType": 5126,
      "count": 288,
      "type": "VEC2"
    },
    {
      "bufferView": 195,
      "componentType": 5125,
      "count": 6912,
      "type": "SCALAR"
    },
    {
      "bufferView": 196,
      "componentType": 5126,
      "count": 1351,
      "max": [
        3.40094828605652,
        0.0797761082649231,
        0.10313892364502
      ],
      "min": [
        -0.176324367523193,
        0.0185686945915222,
        -11.6182413101196
      ],
      "type": "VEC3"
    },
    {
      "bufferView": 197,
      "componentType": 5126,
      "count": 1351,
      "type": "VEC3"
    },
    {
      "bufferView": 198,
      "componentType": 5126,
      "count": 1351,
      "type": "VEC4"
    },
    {
      "bufferView": 199,
      "componentType": 5126,
      "count": 1351,
      "type": "VEC2"
    },
    {
      "bufferView": 200,
      "componentType": 5125,
      "count": 9936,
      "type": "SCALAR"
    },
    {
      "bufferView": 201,
      "componentType": 5126,
      "count": 3649,
      "max": [
        0.983880996704102,
        0.084422767162323,
        0.140682697296143
      ],
      "min": [
        -5.37924575805664,
        -0.77908855676651,
        -12.07776927948
      ],
      "type": "VEC3"
    },
    {
      "bufferView": 202,
      "componentType": 5126,
      "count": 3649,
      "type": "VEC3"
    },
    {
      "bufferView": 203,
      "componentType": 5126,
      "count": 3649,
      "type": "VEC4"
    },
    {
      "bufferView": 204,
      "componentType": 5126,
      "count": 3649,
      "type": "VEC2"
    },
    {
      "bufferView": 205,
      "componentType": 5125,
      "count": 9936,
      "type": "SCALAR"
    },
    {
      "bufferView": 206,
      "componentType": 5126,
      "count": 1939,
      "max": [
        0.983880996704102,
        0.084422767162323,
        0.140682697296143
      ],
      "min": [
        -5.37924575805664,
        -0.77908855676651,
        -12.07776927948
      ],
      "type": "VEC3"
    },
    {
      "bufferView": 207,
      "componentType": 5126,
      "count": 1939,
      "type": "VEC3"
    },
    {
      "bufferView": 208,
      "componentType": 5126,
      "count": 1939,
      "type": "VEC4"
    },
    {
      "bufferView": 209,
      "componentType": 5126,
      "count": 1939,
      "type": "VEC2"
    },
    {
      "bufferView": 210,
      "componentType": 5125,
      "count": 6912,
      "type": "SCALAR"
    },
    {
      "bufferView": 211,
      "componentType": 5126,
      "count": 1351,
      "max": [
        3.40094828605652,
        0.0797761082649231,
        0.10313892364502
      ],
      "min": [
        -0.176324367523193,
        0.0185686945915222,
        -11.6182413101196
      ],
      "type": "VEC3"
    },
    {
      "bufferView": 212,
      "componentType": 5126,
      "count": 1351,
      "type": "VEC3"
    },
    {
      "bufferView": 213,
      "componentType": 5126,
      "count": 1351,
      "type": "VEC4"
    },
    {
      "bufferView": 214,
      "componentType": 5126,
      "count": 1351,
      "type": "VEC2"
    },
    {
      "bufferView": 215,
      "componentType": 5125,
      "count": 6,
      "type": "SCALAR"
    },
    {
      "bufferView": 216,
      "componentType": 5126,
      "count": 4,
      "max": [
        10.2175149917603,
        -1.19209289550781e-07,
        4.13981914520264
      ],
      "min": [
        -1.0,
        -1.19209289550781e-07,
        -9.21093654632568
      ],
      "type": "VEC3"
    },
    {
      "bufferView": 217,
      "componentType": 5126,
      "count": 4,
      "type": "VEC3"
    },
    {
      "bufferView": 218,
      "componentType": 5126,
      "count": 4,
      "type": "VEC4"
    },
    {
      "bufferView": 219,
      "componentType": 5126,
      "count": 4,
      "type": "VEC2"
    },
    {
      "bufferView": 220,
      "componentType": 5125,
      "count": 36,
      "type": "SCALAR"
    },
    {
      "bufferView": 221,
      "componentType": 5126,
      "count": 24,
      "max": [
        1.44999980926514,
        1.39999997615814,
        0.238345503807068
      ],
      "min": [
        -1.45000028610229,
        -1.40000009536743,
        -0.238345146179199
      ],
      "type": "VEC3"
    },
    {
      "bufferView": 222,
      "componentType": 5126,
      "count": 24,
      "type": "VEC3"
    },
    {
      "bufferView": 223,
      "componentType": 5126,
      "count": 24,
      "type": "VEC4"
    },
    {
      "bufferView": 224,
      "componentType": 5126,
      "count": 24,
      "type": "VEC2"
    }
  ],
  "asset": {
    "generator": "Adobe Substance 3D Painter 12.0.2",
    "version": "2.0"
  },
  "bufferViews": [
    {
      "buffer": 0,
      "byteLength": 144,
      "target": 34963
    },
    {
      "buffer": 0,
      "byteLength": 216,
      "byteOffset": 144,
      "target": 34962
    },
    {
      "buffer": 0,
      "byteLength": 216,
      "byteOffset": 360,
      "target": 34962
    },
    {
      "buffer": 0,
      "byteLength": 288,
      "byteOffset": 576,
      "target": 34962
    },
    {
      "buffer": 0,
      "byteLength": 144,
      "byteOffset": 864,
      "target": 34962
    },
    {
      "buffer": 0,
      "byteLength": 144,
      "byteOffset": 1008,
      "target": 34963
    },
    {
      "buffer": 0,
      "byteLength": 288,
      "byteOffset": 1152,
      "target": 34962
    },
    {
      "buffer": 0,
      "byteLength": 288,
      "byteOffset": 1440,
      "target": 34962
    },
    {
      "buffer": 0,
      "byteLength": 384,
      "byteOffset": 1728,
      "target": 34962
    },
    {
      "buffer": 0,
      "byteLength": 192,
      "byteOffset": 2112,
      "target": 34962
    },
    {
      "buffer": 0,
      "byteLength": 1728,
      "byteOffset": 2304,
      "target": 34963
    },
    {
      "buffer": 0,
      "byteLength": 2544,
      "byteOffset": 4032,
      "target": 34962
    },
    {
      "buffer": 0,
      "byteLength": 2544,
      "byteOffset": 6576,
      "target": 34962
    },
    {
      "buffer": 0,
      "byteLength": 3392,
      "byteOffset": 9120,
      "target": 34962
    },
    {
      "buffer": 0,
      "byteLength": 1696,
      "byteOffset": 12512,
      "target": 34962
    },
    {
      "buffer": 0,
      "byteLength": 2016,
      "byteOffset": 14208,
      "target": 34963
    },
    {
      "buffer": 0,
      "byteLength": 3000,
      "byteOffset": 16224,
      "target": 34962
    },
    {
      "buffer": 0,
      "byteLength": 3000,
      "byteOffset": 19224,
      "target": 34962
    },
    {
      "buffer": 0,
      "byteLength": 4000,
      "byteOffset": 22224,
      "target": 34962
    },
    {
      "buffer": 0,
      "byteLength": 2000,
      "byteOffset": 26224,
      "target": 34962
    },
    {
      "buffer": 0,
      "byteLength": 48,
      "byteOffset": 28224,
      "target": 34963
    },
    {
      "buffer": 0,
      "byteLength": 96,
      "byteOffset": 28272,
      "target": 34962
    },
    {
      "buffer": 0,
      "byteLength": 96,
      "byteOffset": 28368,
      "target": 34962
    },
    {
      "buffer": 0,
      "byteLength": 128,
      "byteOffset": 28464,
      "target": 34962
    },
    {
      "buffer": 0,
      "byteLength": 64,
      "byteOffset": 28592,
      "target": 34962
    },
    {
      "buffer": 0,
      "byteLength": 1152,
      "byteOffset": 28656,
      "target": 34963
    },
    {
      "buffer": 0,
      "byteLength": 1392,
      "byteOffset": 29808,
      "target": 34962
    },
    {
      "buffer": 0,
      "byteLength": 1392,
      "byteOffset": 31200,
      "target": 34962
    },
    {
      "buffer": 0,
      "byteLength": 1856,
      "byteOffset": 32592,
      "target": 34962
    },
    {
      "buffer": 0,
      "byteLength": 928,
      "byteOffset": 34448,
      "target": 34962
    },
    {
      "buffer": 0,
      "byteLength": 144,
      "byteOffset": 35376,
      "target": 34963
    },
    {
      "buffer": 0,
      "byteLength": 288,
      "byteOffset": 35520,
      "target": 34962
    },
    {
      "buffer": 0,
      "byteLength": 288,
      "byteOffset": 35808,
      "target": 34962
    },
    {
      "buffer": 0,
      "byteLength": 384,
      "byteOffset": 36096,
      "target": 34962
    },
    {
      "buffer": 0,
      "byteLength": 192,
      "byteOffset": 36480,
      "target": 34962
    },
    {
      "buffer": 0,
      "byteLength": 912,
      "byteOffset": 36672,
      "target": 34963
    },
    {
      "buffer": 0,
      "byteLength": 1296,
      "byteOffset": 37584,
      "target": 34962
    },
    {
      "buffer": 0,
      "byteLength": 1296,
      "byteOffset": 38880,
      "target": 34962
    },
    {
      "buffer": 0,
      "byteLength": 1728,
      "byteOffset": 40176,
      "target": 34962
    },
    {
      "buffer": 0,
      "byteLength": 864,
      "byteOffset": 41904,
      "target": 34962
    },
    {
      "buffer": 0,
      "byteLength": 912,
      "byteOffset": 42768,
      "target": 34963
    },
    {
      "buffer": 0,
      "byteLength": 1056,
      "byteOffset": 43680,
      "target": 34962
    },
    {
      "buffer": 0,
      "byteLength": 1056,
      "byteOffset": 44736,
      "target": 34962
    },
    {
      "buffer": 0,
      "byteLength": 1408,
      "byteOffset": 45792,
      "target": 34962
    },
    {
      "buffer": 0,
      "byteLength": 704,
      "byteOffset": 47200,
      "target": 34962
    },
    {
      "buffer": 0,
      "byteLength": 3312,
      "byteOffset": 47904,
      "target": 34963
    },
    {
      "buffer": 0,
      "byteLength": 3588,
      "byteOffset": 51216,
      "target": 34962
    },
    {
      "buffer": 0,
      "byteLength": 3588,
      "byteOffset": 54804,
      "target": 34962
    },
    {
      "buffer": 0,
      "byteLength": 4784,
      "byteOffset": 58392,
      "target": 34962
    },
    {
      "buffer": 0,
      "byteLength": 2392,
      "byteOffset": 63176,
      "target": 34962
    },
    {
      "buffer": 0,
      "byteLength": 3216,
      "byteOffset": 65568,
      "target": 34963
    },
    {
      "buffer": 0,
      "byteLength": 3816,
      "byteOffset": 68784,
      "target": 34962
    },
    {
      "buffer": 0,
      "byteLength": 3816,
      "byteOffset": 72600,
      "target": 34962
    },
    {
      "buffer": 0,
      "byteLength": 5088,
      "byteOffset": 76416,
      "target": 34962
    },
    {
      "buffer": 0,
      "byteLength": 2544,
      "byteOffset": 81504,
      "target": 34962
    },
    {
      "buffer": 0,
      "byteLength": 3216,
      "byteOffset": 84048,
      "target": 34963
    },
    {
      "buffer": 0,
      "byteLength": 3720,
      "byteOffset": 87264,
      "target": 34962
    },
    {
      "buffer": 0,
      "byteLength": 3720,
      "byteOffset": 90984,
      "target": 34962
    },
    {
      "buffer": 0,
      "byteLength": 4960,
      "byteOffset": 94704,
      "target": 34962
    },
    {
      "buffer": 0,
      "byteLength": 2480,
      "byteOffset": 99664,
      "target": 34962
    },
    {
      "buffer": 0,
      "byteLength": 432,
      "byteOffset": 102144,
      "target": 34963
    },
    {
      "buffer": 0,
      "byteLength": 576,
      "byteOffset": 102576,
      "target": 34962
    },
    {
      "buffer": 0,
      "byteLength": 576,
      "byteOffset": 103152,
      "target": 34962
    },
    {
      "buffer": 0,
      "byteLength": 768,
      "byteOffset": 103728,
      "target": 34962
    },
    {
      "buffer": 0,
      "byteLength": 384,
      "byteOffset": 104496,
      "target": 34962
    },
    {
      "buffer": 0,
      "byteLength": 432,
      "byteOffset": 104880,
      "target": 34963
    },
    {
      "buffer": 0,
      "byteLength": 576,
      "byteOffset": 105312,
      "target": 34962
    },
    {
      "buffer": 0,
      "byteLength": 576,
      "byteOffset": 105888,
      "target": 34962
    },
    {
      "buffer": 0,
      "byteLength": 768,
      "byteOffset": 106464,
      "target": 34962
    },
    {
      "buffer": 0,
      "byteLength": 384,
      "byteOffset": 107232,
      "target": 34962
    },
    {
      "buffer": 0,
      "byteLength": 432,
      "byteOffset": 107616,
      "target": 34963
    },
    {
      "buffer": 0,
      "byteLength": 576,
      "byteOffset": 108048,
      "target": 34962
    },
    {
      "buffer": 0,
      "byteLength": 576,
      "byteOffset": 108624,
      "target": 34962
    },
    {
      "buffer": 0,
      "byteLength": 768,
      "byteOffset": 109200,
      "target": 34962
    },
    {
      "buffer": 0,
      "byteLength": 384,
      "byteOffset": 109968,
      "target": 34962
    },
    {
      "buffer": 0,
      "byteLength": 432,
      "byteOffset": 110352,
      "target": 34963
    },
    {
      "buffer": 0,
      "byteLength": 576,
      "byteOffset": 110784,
      "target": 34962
    },
    {
      "buffer": 0,
      "byteLength": 576,
      "byteOffset": 111360,
      "target": 34962
    },
    {
      "buffer": 0,
      "byteLength": 768,
      "byteOffset": 111936,
      "target": 34962
    },
    {
      "buffer": 0,
      "byteLength": 384,
      "byteOffset": 112704,
      "target": 34962
    },
    {
      "buffer": 0,
      "byteLength": 240,
      "byteOffset": 113088,
      "target": 34963
    },
    {
      "buffer": 0,
      "byteLength": 480,
      "byteOffset": 113328,
      "target": 34962
    },
    {
      "buffer": 0,
      "byteLength": 480,
      "byteOffset": 113808,
      "target": 34962
    },
    {
      "buffer": 0,
      "byteLength": 640,
      "byteOffset": 114288,
      "target": 34962
    },
    {
      "buffer": 0,
      "byteLength": 320,
      "byteOffset": 114928,
      "target": 34962
    },
    {
      "buffer": 0,
      "byteLength": 240,
      "byteOffset": 115248,
      "target": 34963
    },
    {
      "buffer": 0,
      "byteLength": 480,
      "byteOffset": 115488,
      "target": 34962
    },
    {
      "buffer": 0,
      "byteLength": 480,
      "byteOffset": 115968,
      "target": 34962
    },
    {
      "buffer": 0,
      "byteLength": 640,
      "byteOffset": 116448,
      "target": 34962
    },
    {
      "buffer": 0,
      "byteLength": 320,
      "byteOffset": 117088,
      "target": 34962
    },
    {
      "buffer": 0,
      "byteLength": 18480,
      "byteOffset": 117408,
      "target": 34963
    },
    {
      "buffer": 0,
      "byteLength": 19140,
      "byteOffset": 135888,
      "target": 34962
    },
    {
      "buffer": 0,
      "byteLength": 19140,
      "byteOffset": 155028,
      "target": 34962
    },
    {
      "buffer": 0,
      "byteLength": 25520,
      "byteOffset": 174168,
      "target": 34962
    },
    {
      "buffer": 0,
      "byteLength": 12760,
      "byteOffset": 199688,
      "target": 34962
    },
    {
      "buffer": 0,
      "byteLength": 144,
      "byteOffset": 212448,
      "target": 34963
    },
    {
      "buffer": 0,
      "byteLength": 288,
      "byteOffset": 212592,
      "target": 34962
    },
    {
      "buffer": 0,
      "byteLength": 288,
      "byteOffset": 212880,
      "target": 34962
    },
    {
      "buffer": 0,
      "byteLength": 384,
      "byteOffset": 213168,
      "target": 34962
    },
    {
      "buffer": 0,
      "byteLength": 192,
      "byteOffset": 213552,
      "target": 34962
    },
    {
      "buffer": 0,
      "byteLength": 144,
      "byteOffset": 213744,
      "target": 34963
    },
    {
      "buffer": 0,
      "byteLength": 288,
      "byteOffset": 213888,
      "target": 34962
    },
    {
      "buffer": 0,
      "byteLength": 288,
      "byteOffset": 214176,
      "target": 34962
    },
    {
      "buffer": 0,
      "byteLength": 384,
      "byteOffset": 214464,
      "target": 34962
    },
    {
      "buffer": 0,
      "byteLength": 192,
      "byteOffset": 214848,
      "target": 34962
    },
    {
      "buffer": 0,
      "byteLength": 900,
      "byteOffset": 215040,
      "target": 34963
    },
    {
      "buffer": 0,
      "byteLength": 1464,
      "byteOffset": 215940,
      "target": 34962
    },
    {
      "buffer": 0,
      "byteLength": 1464,
      "byteOffset": 217404,
      "target": 34962
    },
    {
      "buffer": 0,
      "byteLength": 1952,
      "byteOffset": 218868,
      "target": 34962
    },
    {
      "buffer": 0,
      "byteLength": 976,
      "byteOffset": 220820,
      "target": 34962
    },
    {
      "buffer": 0,
      "byteLength": 144,
      "byteOffset": 221796,
      "target": 34963
    },
    {
      "buffer": 0,
      "byteLength": 168,
      "byteOffset": 221940,
      "target": 34962
    },
    {
      "buffer": 0,
      "byteLength": 168,
      "byteOffset": 222108,
      "target": 34962
    },
    {
      "buffer": 0,
      "byteLength": 224,
      "byteOffset": 222276,
      "target": 34962
    },
    {
      "buffer": 0,
      "byteLength": 112,
      "byteOffset": 222500,
      "target": 34962
    },
    {
      "buffer": 0,
      "byteLength": 48,
      "byteOffset": 222612,
      "target": 34963
    },
    {
      "buffer": 0,
      "byteLength": 72,
      "byteOffset": 222660,
      "target": 34962
    },
    {
      "buffer": 0,
      "byteLength": 72,
      "byteOffset": 222732,
      "target": 34962
    },
    {
      "buffer": 0,
      "byteLength": 96,
      "byteOffset": 222804,
      "target": 34962
    },
    {
      "buffer": 0,
      "byteLength": 48,
      "byteOffset": 222900,
      "target": 34962
    },
    {
      "buffer": 0,
      "byteLength": 744,
      "byteOffset": 222948,
      "target": 34963
    },
    {
      "buffer": 0,
      "byteLength": 984,
      "byteOffset": 223692,
      "target": 34962
    },
    {
      "buffer": 0,
      "byteLength": 984,
      "byteOffset": 224676,
      "target": 34962
    },
    {
      "buffer": 0,
      "byteLength": 1312,
      "byteOffset": 225660,
      "target": 34962
    },
    {
      "buffer": 0,
      "byteLength": 656,
      "byteOffset": 226972,
      "target": 34962
    },
    {
      "buffer": 0,
      "byteLength": 816,
      "byteOffset": 227628,
      "target": 34963
    },
    {
      "buffer": 0,
      "byteLength": 1272,
      "byteOffset": 228444,
      "target": 34962
    },
    {
      "buffer": 0,
      "byteLength": 1272,
      "byteOffset": 229716,
      "target": 34962
    },
    {
      "buffer": 0,
      "byteLength": 1696,
      "byteOffset": 230988,
      "target": 34962
    },
    {
      "buffer": 0,
      "byteLength": 848,
      "byteOffset": 232684,
      "target": 34962
    },
    {
      "buffer": 0,
      "byteLength": 11136,
      "byteOffset": 233532,
      "target": 34963
    },
    {
      "buffer": 0,
      "byteLength": 11556,
      "byteOffset": 244668,
      "target": 34962
    },
    {
      "buffer": 0,
      "byteLength": 11556,
      "byteOffset": 256224,
      "target": 34962
    },
    {
      "buffer": 0,
      "byteLength": 15408,
      "byteOffset": 267780,
      "target": 34962
    },
    {
      "buffer": 0,
      "byteLength": 7704,
      "byteOffset": 283188,
      "target": 34962
    },
    {
      "buffer": 0,
      "byteLength": 144,
      "byteOffset": 290892,
      "target": 34963
    },
    {
      "buffer": 0,
      "byteLength": 288,
      "byteOffset": 291036,
      "target": 34962
    },
    {
      "buffer": 0,
      "byteLength": 288,
      "byteOffset": 291324,
      "target": 34962
    },
    {
      "buffer": 0,
      "byteLength": 384,
      "byteOffset": 291612,
      "target": 34962
    },
    {
      "buffer": 0,
      "byteLength": 192,
      "byteOffset": 291996,
      "target": 34962
    },
    {
      "buffer": 0,
      "byteLength": 144,
      "byteOffset": 292188,
      "target": 34963
    },
    {
      "buffer": 0,
      "byteLength": 288,
      "byteOffset": 292332,
      "target": 34962
    },
    {
      "buffer": 0,
      "byteLength": 288,
      "byteOffset": 292620,
      "target": 34962
    },
    {
      "buffer": 0,
      "byteLength": 384,
      "byteOffset": 292908,
      "target": 34962
    },
    {
      "buffer": 0,
      "byteLength": 192,
      "byteOffset": 293292,
      "target": 34962
    },
    {
      "buffer": 0,
      "byteLength": 624,
      "byteOffset": 293484,
      "target": 34963
    },
    {
      "buffer": 0,
      "byteLength": 864,
      "byteOffset": 294108,
      "target": 34962
    },
    {
      "buffer": 0,
      "byteLength": 864,
      "byteOffset": 294972,
      "target": 34962
    },
    {
      "buffer": 0,
      "byteLength": 1152,
      "byteOffset": 295836,
      "target": 34962
    },
    {
      "buffer": 0,
      "byteLength": 576,
      "byteOffset": 296988,
      "target": 34962
    },
    {
      "buffer": 0,
      "byteLength": 384,
      "byteOffset": 297564,
      "target": 34963
    },
    {
      "buffer": 0,
      "byteLength": 576,
      "byteOffset": 297948,
      "target": 34962
    },
    {
      "buffer": 0,
      "byteLength": 576,
      "byteOffset": 298524,
      "target": 34962
    },
    {
      "buffer": 0,
      "byteLength": 768,
      "byteOffset": 299100,
      "target": 34962
    },
    {
      "buffer": 0,
      "byteLength": 384,
      "byteOffset": 299868,
      "target": 34962
    },
    {
      "buffer": 0,
      "byteLength": 144,
      "byteOffset": 300252,
      "target": 34963
    },
    {
      "buffer": 0,
      "byteLength": 288,
      "byteOffset": 300396,
      "target": 34962
    },
    {
      "buffer": 0,
      "byteLength": 288,
      "byteOffset": 300684,
      "target": 34962
    },
    {
      "buffer": 0,
      "byteLength": 384,
      "byteOffset": 300972,
      "target": 34962
    },
    {
      "buffer": 0,
      "byteLength": 192,
      "byteOffset": 301356,
      "target": 34962
    },
    {
      "buffer": 0,
      "byteLength": 11136,
      "byteOffset": 301548,
      "target": 34963
    },
    {
      "buffer": 0,
      "byteLength": 11556,
      "byteOffset": 312684,
      "target": 34962
    },
    {
      "buffer": 0,
      "byteLength": 11556,
      "byteOffset": 324240,
      "target": 34962
    },
    {
      "buffer": 0,
      "byteLength": 15408,
      "byteOffset": 335796,
      "target": 34962
    },
    {
      "buffer": 0,
      "byteLength": 7704,
      "byteOffset": 351204,
      "target": 34962
    },
    {
      "buffer": 0,
      "byteLength": 144,
      "byteOffset": 358908,
      "target": 34963
    },
    {
      "buffer": 0,
      "byteLength": 288,
      "byteOffset": 359052,
      "target": 34962
    },
    {
      "buffer": 0,
      "byteLength": 288,
      "byteOffset": 359340,
      "target": 34962
    },
    {
      "buffer": 0,
      "byteLength": 384,
      "byteOffset": 359628,
      "target": 34962
    },
    {
      "buffer": 0,
      "byteLength": 192,
      "byteOffset": 360012,
      "target": 34962
    },
    {
      "buffer": 0,
      "byteLength": 11880,
      "byteOffset": 360204,
      "target": 34963
    },
    {
      "buffer": 0,
      "byteLength": 11520,
      "byteOffset": 372084,
      "target": 34962
    },
    {
      "buffer": 0,
      "byteLength": 11520,
      "byteOffset": 383604,
      "target": 34962
    },
    {
      "buffer": 0,
      "byteLength": 15360,
      "byteOffset": 395124,
      "target": 34962
    },
    {
      "buffer": 0,
      "byteLength": 7680,
      "byteOffset": 410484,
      "target": 34962
    },
    {
      "buffer": 0,
      "byteLength": 11136,
      "byteOffset": 418164,
      "target": 34963
    },
    {
      "buffer": 0,
      "byteLength": 11556,
      "byteOffset": 429300,
      "target": 34962
    },
    {
      "buffer": 0,
      "byteLength": 11556,
      "byteOffset": 440856,
      "target": 34962
    },
    {
      "buffer": 0,
      "byteLength": 15408,
      "byteOffset": 452412,
      "target": 34962
    },
    {
      "buffer": 0,
      "byteLength": 7704,
      "byteOffset": 467820,
      "target": 34962
    },
    {
      "buffer": 0,
      "byteLength": 144,
      "byteOffset": 475524,
      "target": 34963
    },
    {
      "buffer": 0,
      "byteLength": 288,
      "byteOffset": 475668,
      "target": 34962
    },
    {
      "buffer": 0,
      "byteLength": 288,
      "byteOffset": 475956,
      "target": 34962
    },
    {
      "buffer": 0,
      "byteLength": 384,
      "byteOffset": 476244,
      "target": 34962
    },
    {
      "buffer": 0,
      "byteLength": 192,
      "byteOffset": 476628,
      "target": 34962
    },
    {
      "buffer": 0,
      "byteLength": 18480,
      "byteOffset": 476820,
      "target": 34963
    },
    {
      "buffer": 0,
      "byteLength": 19140,
      "byteOffset": 495300,
      "target": 34962
    },
    {
      "buffer": 0,
      "byteLength": 19140,
      "byteOffset": 514440,
      "target": 34962
    },
    {
      "buffer": 0,
      "byteLength": 25520,
      "byteOffset": 533580,
      "target": 34962
    },
    {
      "buffer": 0,
      "byteLength": 12760,
      "byteOffset": 559100,
      "target": 34962
    },
    {
      "buffer": 0,
      "byteLength": 1728,
      "byteOffset": 571860,
      "target": 34963
    },
    {
      "buffer": 0,
      "byteLength": 3456,
      "byteOffset": 573588,
      "target": 34962
    },
    {
      "buffer": 0,
      "byteLength": 3456,
      "byteOffset": 577044,
      "target": 34962
    },
    {
      "buffer": 0,
      "byteLength": 4608,
      "byteOffset": 580500,
      "target": 34962
    },
    {
      "buffer": 0,
      "byteLength": 2304,
      "byteOffset": 585108,
      "target": 34962
    },
    {
      "buffer": 0,
      "byteLength": 27648,
      "byteOffset": 587412,
      "target": 34963
    },
    {
      "buffer": 0,
      "byteLength": 16212,
      "byteOffset": 615060,
      "target": 34962
    },
    {
      "buffer": 0,
      "byteLength": 16212,
      "byteOffset": 631272,
      "target": 34962
    },
    {
      "buffer": 0,
      "byteLength": 21616,
      "byteOffset": 647484,
      "target": 34962
    },
    {
      "buffer": 0,
      "byteLength": 10808,
      "byteOffset": 669100,
      "target": 34962
    },
    {
      "buffer": 0,
      "byteLength": 39744,
      "byteOffset": 679908,
      "target": 34963
    },
    {
      "buffer": 0,
      "byteLength": 43788,
      "byteOffset": 719652,
      "target": 34962
    },
    {
      "buffer": 0,
      "byteLength": 43788,
      "byteOffset": 763440,
      "target": 34962
    },
    {
      "buffer": 0,
      "byteLength": 58384,
      "byteOffset": 807228,
      "target": 34962
    },
    {
      "buffer": 0,
      "byteLength": 29192,
      "byteOffset": 865612,
      "target": 34962
    },
    {
      "buffer": 0,
      "byteLength": 39744,
      "byteOffset": 894804,
      "target": 34963
    },
    {
      "buffer": 0,
      "byteLength": 23268,
      "byteOffset": 934548,
      "target": 34962
    },
    {
      "buffer": 0,
      "byteLength": 23268,
      "byteOffset": 957816,
      "target": 34962
    },
    {
      "buffer": 0,
      "byteLength": 31024,
      "byteOffset": 981084,
      "target": 34962
    },
    {
      "buffer": 0,
      "byteLength": 15512,
      "byteOffset": 1012108,
      "target": 34962
    },
    {
      "buffer": 0,
      "byteLength": 27648,
      "byteOffset": 1027620,
      "target": 34963
    },
    {
      "buffer": 0,
      "byteLength": 16212,
      "byteOffset": 1055268,
      "target": 34962
    },
    {
      "buffer": 0,
      "byteLength": 16212,
      "byteOffset": 1071480,
      "target": 34962
    },
    {
      "buffer": 0,
      "byteLength": 21616,
      "byteOffset": 1087692,
      "target": 34962
    },
    {
      "buffer": 0,
      "byteLength": 10808,
      "byteOffset": 1109308,
      "target": 34962
    },
    {
      "buffer": 0,
      "byteLength": 24,
      "byteOffset": 1120116,
      "target": 34963
    },
    {
      "buffer": 0,
      "byteLength": 48,
      "byteOffset": 1120140,
      "target": 34962
    },
    {
      "buffer": 0,
      "byteLength": 48,
      "byteOffset": 1120188,
      "target": 34962
    },
    {
      "buffer": 0,
      "byteLength": 64,
      "byteOffset": 1120236,
      "target": 34962
    },
    {
      "buffer": 0,
      "byteLength": 32,
      "byteOffset": 1120300,
      "target": 34962
    },
    {
      "buffer": 0,
      "byteLength": 144,
      "byteOffset": 1120332,
      "target": 34963
    },
    {
      "buffer": 0,
      "byteLength": 288,
      "byteOffset": 1120476,
      "target": 34962
    },
    {
      "buffer": 0,
      "byteLength": 288,
      "byteOffset": 1120764,
      "target": 34962
    },
    {
      "buffer": 0,
      "byteLength": 384,
      "byteOffset": 1121052,
      "target": 34962
    },
    {
      "buffer": 0,
      "byteLength": 192,
      "byteOffset": 1121436,
      "target": 34962
    }
  ],
  "buffers": [
    {
      "byteLength": 1121628,
      "uri": "Untitled.bin"
    }
  ],
  "images": [
    {
      "uri": "ceiling_baseColor.png"
    },
    {
      "uri": "ceiling_occlusionRoughnessMetallic.png"
    },
    {
      "uri": "ceiling_normal.png"
    },
    {
      "uri": "DefaultMaterial_baseColor.png"
    },
    {
      "uri": "DefaultMaterial_occlusionRoughnessMetallic.png"
    },
    {
      "uri": "DefaultMaterial_normal.png"
    },
    {
      "uri": "door_baseColor.png"
    },
    {
      "uri": "door_occlusionRoughnessMetallic.png"
    },
    {
      "uri": "door_normal.png"
    },
    {
      "uri": "door4_baseColor.png"
    },
    {
      "uri": "door4_occlusionRoughnessMetallic.png"
    },
    {
      "uri": "door4_normal.png"
    },
    {
      "uri": "floor_cement_baseColor.png"
    },
    {
      "uri": "floor_cement_occlusionRoughnessMetallic.png"
    },
    {
      "uri": "floor_cement_normal.png"
    },
    {
      "uri": "floor_cement.001_baseColor.png"
    },
    {
      "uri": "floor_cement.001_occlusionRoughnessMetallic.png"
    },
    {
      "uri": "floor_cement.001_normal.png"
    },
    {
      "uri": "glass_baseColor.png"
    },
    {
      "uri": "glass_occlusionRoughnessMetallic.png"
    },
    {
      "uri": "glass_normal.png"
    },
    {
      "uri": "metal_baseColor.png"
    },
    {
      "uri": "metal_occlusionRoughnessMetallic.png"
    },
    {
      "uri": "metal_normal.png"
    },
    {
      "uri": "wall_baseColor.png"
    },
    {
      "uri": "wall_occlusionRoughnessMetallic.png"
    },
    {
      "uri": "wall_normal.png"
    },
    {
      "uri": "wall.001_baseColor.png"
    },
    {
      "uri": "wall.001_occlusionRoughnessMetallic.png"
    },
    {
      "uri": "wall.001_normal.png"
    },
    {
      "uri": "white_brick_baseColor.png"
    },
    {
      "uri": "white_brick_occlusionRoughnessMetallic.png"
    },
    {
      "uri": "white_brick_normal.png"
    },
    {
      "uri": "window_baseColor.png"
    },
    {
      "uri": "window_occlusionRoughnessMetallic.png"
    },
    {
      "uri": "window_normal.png"
    },
    {
      "uri": "wire_baseColor.png"
    },
    {
      "uri": "wire_occlusionRoughnessMetallic.png"
    },
    {
      "uri": "wire_normal.png"
    },
    {
      "uri": "чугун_baseColor.png"
    },
    {
      "uri": "чугун_occlusionRoughnessMetallic.png"
    },
    {
      "uri": "чугун_normal.png"
    }
  ],
  "materials": [
    {
      "alphaMode": "BLEND",
      "name": "ceiling",
      "normalTexture": {
        "index": 2
      },
      "occlusionTexture": {
        "index": 1
      },
      "pbrMetallicRoughness": {
        "baseColorTexture": {
          "index": 0
        },
        "metallicRoughnessTexture": {
          "index": 1
        }
      }
    },
    {
      "alphaMode": "OPAQUE",
      "name": "DefaultMaterial",
      "normalTexture": {
        "index": 5
      },
      "occlusionTexture": {
        "index": 4
      },
      "pbrMetallicRoughness": {
        "baseColorTexture": {
          "index": 3
        },
        "metallicRoughnessTexture": {
          "index": 4
        }
      }
    },
    {
      "alphaMode": "BLEND",
      "name": "door",
      "normalTexture": {
        "index": 8
      },
      "occlusionTexture": {
        "index": 7
      },
      "pbrMetallicRoughness": {
        "baseColorTexture": {
          "index": 6
        },
        "metallicRoughnessTexture": {
          "index": 7
        }
      }
    },
    {
      "alphaMode": "BLEND",
      "name": "door4",
      "normalTexture": {
        "index": 11
      },
      "occlusionTexture": {
        "index": 10
      },
      "pbrMetallicRoughness": {
        "baseColorTexture": {
          "index": 9
        },
        "metallicRoughnessTexture": {
          "index": 10
        }
      }
    },
    {
      "alphaMode": "BLEND",
      "name": "floor_cement",
      "normalTexture": {
        "index": 14
      },
      "occlusionTexture": {
        "index": 13
      },
      "pbrMetallicRoughness": {
        "baseColorTexture": {
          "index": 12
        },
        "metallicRoughnessTexture": {
          "index": 13
        }
      }
    },
    {
      "alphaMode": "BLEND",
      "name": "floor_cement.001",
      "normalTexture": {
        "index": 17
      },
      "occlusionTexture": {
        "index": 16
      },
      "pbrMetallicRoughness": {
        "baseColorTexture": {
          "index": 15
        },
        "metallicRoughnessTexture": {
          "index": 16
        }
      }
    },
    {
      "alphaMode": "BLEND",
      "name": "glass",
      "normalTexture": {
        "index": 20
      },
      "occlusionTexture": {
        "index": 19
      },
      "pbrMetallicRoughness": {
        "baseColorTexture": {
          "index": 18
        },
        "metallicRoughnessTexture": {
          "index": 19
        }
      }
    },
    {
      "alphaMode": "BLEND",
      "name": "metal",
      "normalTexture": {
        "index": 23
      },
      "occlusionTexture": {
        "index": 22
      },
      "pbrMetallicRoughness": {
        "baseColorTexture": {
          "index": 21
        },
        "metallicRoughnessTexture": {
          "index": 22
        }
      }
    },
    {
      "alphaMode": "BLEND",
      "name": "wall",
      "normalTexture": {
        "index": 26
      },
      "occlusionTexture": {
        "index": 25
      },
      "pbrMetallicRoughness": {
        "baseColorTexture": {
          "index": 24
        },
        "metallicRoughnessTexture": {
          "index": 25
        }
      }
    },
    {
      "alphaMode": "BLEND",
      "name": "wall.001",
      "normalTexture": {
        "index": 29
      },
      "occlusionTexture": {
        "index": 28
      },
      "pbrMetallicRoughness": {
        "baseColorTexture": {
          "index": 27
        },
        "metallicRoughnessTexture": {
          "index": 28
        }
      }
    },
    {
      "alphaMode": "BLEND",
      "name": "white_brick",
      "normalTexture": {
        "index": 32
      },
      "occlusionTexture": {
        "index": 31
      },
      "pbrMetallicRoughness": {
        "baseColorTexture": {
          "index": 30
        },
        "metallicRoughnessTexture": {
          "index": 31
        }
      }
    },
    {
      "alphaMode": "BLEND",
      "name": "window",
      "normalTexture": {
        "index": 35
      },
      "occlusionTexture": {
        "index": 34
      },
      "pbrMetallicRoughness": {
        "baseColorTexture": {
          "index": 33
        },
        "metallicRoughnessTexture": {
          "index": 34
        }
      }
    },
    {
      "alphaMode": "OPAQUE",
      "name": "wire",
      "normalTexture": {
        "index": 38
      },
      "occlusionTexture": {
        "index": 37
      },
      "pbrMetallicRoughness": {
        "baseColorTexture": {
          "index": 36
        },
        "metallicRoughnessTexture": {
          "index": 37
        }
      }
    },
    {
      "alphaMode": "BLEND",
      "name": "чугун",
      "normalTexture": {
        "index": 41
      },
      "occlusionTexture": {
        "index": 40
      },
      "pbrMetallicRoughness": {
        "baseColorTexture": {
          "index": 39
        },
        "metallicRoughnessTexture": {
          "index": 40
        }
      }
    }
  ],
  "meshes": [
    {
      "name": "Plane",
      "primitives": [
        {
          "attributes": {
            "NORMAL": 2,
            "POSITION": 1,
            "TANGENT": 3,
            "TEXCOORD_0": 4
          },
          "indices": 0,
          "material": 4,
          "mode": 4
        }
      ]
    },
    {
      "name": "Cube",
      "primitives": [
        {
          "attributes": {
            "NORMAL": 7,
            "POSITION": 6,
            "TANGENT": 8,
            "TEXCOORD_0": 9
          },
          "indices": 5,
          "material": 8,
          "mode": 4
        }
      ]
    },
    {
      "name": "Cube.001",
      "primitives": [
        {
          "attributes": {
            "NORMAL": 12,
            "POSITION": 11,
            "TANGENT": 13,
            "TEXCOORD_0": 14
          },
          "indices": 10,
          "material": 8,
          "mode": 4
        }
      ]
    },
    {
      "name": "Plane.002-0",
      "primitives": [
        {
          "attributes": {
            "NORMAL": 17,
            "POSITION": 16,
            "TANGENT": 18,
            "TEXCOORD_0": 19
          },
          "indices": 15,
          "material": 11,
          "mode": 4
        }
      ]
    },
    {
      "name": "Plane.002-1",
      "primitives": [
        {
          "attributes": {
            "NORMAL": 22,
            "POSITION": 21,
            "TANGENT": 23,
            "TEXCOORD_0": 24
          },
          "indices": 20,
          "material": 6,
          "mode": 4
        }
      ]
    },
    {
      "name": "Cube.002",
      "primitives": [
        {
          "attributes": {
            "NORMAL": 27,
            "POSITION": 26,
            "TANGENT": 28,
            "TEXCOORD_0": 29
          },
          "indices": 25,
          "material": 10,
          "mode": 4
        }
      ]
    },
    {
      "name": "Cube.004",
      "primitives": [
        {
          "attributes": {
            "NORMAL": 32,
            "POSITION": 31,
            "TANGENT": 33,
            "TEXCOORD_0": 34
          },
          "indices": 30,
          "material": 10,
          "mode": 4
        }
      ]
    },
    {
      "name": "Cube.005",
      "primitives": [
        {
          "attributes": {
            "NORMAL": 37,
            "POSITION": 36,
            "TANGENT": 38,
            "TEXCOORD_0": 39
          },
          "indices": 35,
          "material": 10,
          "mode": 4
        }
      ]
    },
    {
      "name": "Cylinder",
      "primitives": [
        {
          "attributes": {
            "NORMAL": 42,
            "POSITION": 41,
            "TANGENT": 43,
            "TEXCOORD_0": 44
          },
          "indices": 40,
          "material": 13,
          "mode": 4
        }
      ]
    },
    {
      "name": "Cylinder.001",
      "primitives": [
        {
          "attributes": {
            "NORMAL": 47,
            "POSITION": 46,
            "TANGENT": 48,
            "TEXCOORD_0": 49
          },
          "indices": 45,
          "material": 13,
          "mode": 4
        }
      ]
    },
    {
      "name": "Cylinder.002",
      "primitives": [
        {
          "attributes": {
            "NORMAL": 52,
            "POSITION": 51,
            "TANGENT": 53,
            "TEXCOORD_0": 54
          },
          "indices": 50,
          "material": 13,
          "mode": 4
        }
      ]
    },
    {
      "name": "Cylinder.003",
      "primitives": [
        {
          "attributes": {
            "NORMAL": 57,
            "POSITION": 56,
            "TANGENT": 58,
            "TEXCOORD_0": 59
          },
          "indices": 55,
          "material": 13,
          "mode": 4
        }
      ]
    },
    {
      "name": "Cylinder.004",
      "primitives": [
        {
          "attributes": {
            "NORMAL": 62,
            "POSITION": 61,
            "TANGENT": 63,
            "TEXCOORD_0": 64
          },
          "indices": 60,
          "material": 13,
          "mode": 4
        }
      ]
    },
    {
      "name": "Cylinder.005",
      "primitives": [
        {
          "attributes": {
            "NORMAL": 67,
            "POSITION": 66,
            "TANGENT": 68,
            "TEXCOORD_0": 69
          },
          "indices": 65,
          "material": 13,
          "mode": 4
        }
      ]
    },
    {
      "name": "Cylinder.006",
      "primitives": [
        {
          "attributes": {
            "NORMAL": 72,
            "POSITION": 71,
            "TANGENT": 73,
            "TEXCOORD_0": 74
          },
          "indices": 70,
          "material": 13,
          "mode": 4
        }
      ]
    },
    {
      "name": "Cylinder.007",
      "primitives": [
        {
          "attributes": {
            "NORMAL": 77,
            "POSITION": 76,
            "TANGENT": 78,
            "TEXCOORD_0": 79
          },
          "indices": 75,
          "material": 13,
          "mode": 4
        }
      ]
    },
    {
      "name": "Plane.001",
      "primitives": [
        {
          "attributes": {
            "NORMAL": 82,
            "POSITION": 81,
            "TANGENT": 83,
            "TEXCOORD_0": 84
          },
          "indices": 80,
          "material": 2,
          "mode": 4
        }
      ]
    },
    {
      "name": "Plane.003",
      "primitives": [
        {
          "attributes": {
            "NORMAL": 87,
            "POSITION": 86,
            "TANGENT": 88,
            "TEXCOORD_0": 89
          },
          "indices": 85,
          "material": 2,
          "mode": 4
        }
      ]
    },
    {
      "name": "Cube.008",
      "primitives": [
        {
          "attributes": {
            "NORMAL": 92,
            "POSITION": 91,
            "TANGENT": 93,
            "TEXCOORD_0": 94
          },
          "indices": 90,
          "material": 0,
          "mode": 4
        }
      ]
    },
    {
      "name": "Cube.009",
      "primitives": [
        {
          "attributes": {
            "NORMAL": 97,
            "POSITION": 96,
            "TANGENT": 98,
            "TEXCOORD_0": 99
          },
          "indices": 95,
          "material": 0,
          "mode": 4
        }
      ]
    },
    {
      "name": "Cube.010",
      "primitives": [
        {
          "attributes": {
            "NORMAL": 102,
            "POSITION": 101,
            "TANGENT": 103,
            "TEXCOORD_0": 104
          },
          "indices": 100,
          "material": 0,
          "mode": 4
        }
      ]
    },
    {
      "name": "Cube.006",
      "primitives": [
        {
          "attributes": {
            "NORMAL": 107,
            "POSITION": 106,
            "TANGENT": 108,
            "TEXCOORD_0": 109
          },
          "indices": 105,
          "material": 8,
          "mode": 4
        }
      ]
    },
    {
      "name": "Plane.004",
      "primitives": [
        {
          "attributes": {
            "NORMAL": 112,
            "POSITION": 111,
            "TANGENT": 113,
            "TEXCOORD_0": 114
          },
          "indices": 110,
          "material": 4,
          "mode": 4
        }
      ]
    },
    {
      "name": "Plane.005",
      "primitives": [
        {
          "attributes": {
            "NORMAL": 117,
            "POSITION": 116,
            "TANGENT": 118,
            "TEXCOORD_0": 119
          },
          "indices": 115,
          "material": 4,
          "mode": 4
        }
      ]
    },
    {
      "name": "Cube.007",
      "primitives": [
        {
          "attributes": {
            "NORMAL": 122,
            "POSITION": 121,
            "TANGENT": 123,
            "TEXCOORD_0": 124
          },
          "indices": 120,
          "material": 8,
          "mode": 4
        }
      ]
    },
    {
      "name": "Cube.012",
      "primitives": [
        {
          "attributes": {
            "NORMAL": 127,
            "POSITION": 126,
            "TANGENT": 128,
            "TEXCOORD_0": 129
          },
          "indices": 125,
          "material": 8,
          "mode": 4
        }
      ]
    },
    {
      "name": "Cube.014-0",
      "primitives": [
        {
          "attributes": {
            "NORMAL": 132,
            "POSITION": 131,
            "TANGENT": 133,
            "TEXCOORD_0": 134
          },
          "indices": 130,
          "material": 3,
          "mode": 4
        }
      ]
    },
    {
      "name": "Cube.014-1",
      "primitives": [
        {
          "attributes": {
            "NORMAL": 137,
            "POSITION": 136,
            "TANGENT": 138,
            "TEXCOORD_0": 139
          },
          "indices": 135,
          "material": 6,
          "mode": 4
        }
      ]
    },
    {
      "name": "Cube.015",
      "primitives": [
        {
          "attributes": {
            "NORMAL": 142,
            "POSITION": 141,
            "TANGENT": 143,
            "TEXCOORD_0": 144
          },
          "indices": 140,
          "material": 1,
          "mode": 4
        }
      ]
    },
    {
      "name": "Cube.017",
      "primitives": [
        {
          "attributes": {
            "NORMAL": 147,
            "POSITION": 146,
            "TANGENT": 148,
            "TEXCOORD_0": 149
          },
          "indices": 145,
          "material": 10,
          "mode": 4
        }
      ]
    },
    {
      "name": "Cube.018",
      "primitives": [
        {
          "attributes": {
            "NORMAL": 152,
            "POSITION": 151,
            "TANGENT": 153,
            "TEXCOORD_0": 154
          },
          "indices": 150,
          "material": 10,
          "mode": 4
        }
      ]
    },
    {
      "name": "Cube.019",
      "primitives": [
        {
          "attributes": {
            "NORMAL": 157,
            "POSITION": 156,
            "TANGENT": 158,
            "TEXCOORD_0": 159
          },
          "indices": 155,
          "material": 1,
          "mode": 4
        }
      ]
    },
    {
      "name": "Cube.003-0",
      "primitives": [
        {
          "attributes": {
            "NORMAL": 162,
            "POSITION": 161,
            "TANGENT": 163,
            "TEXCOORD_0": 164
          },
          "indices": 160,
          "material": 3,
          "mode": 4
        }
      ]
    },
    {
      "name": "Cube.003-1",
      "primitives": [
        {
          "attributes": {
            "NORMAL": 167,
            "POSITION": 166,
            "TANGENT": 168,
            "TEXCOORD_0": 169
          },
          "indices": 165,
          "material": 6,
          "mode": 4
        }
      ]
    },
    {
      "name": "Cube.011",
      "primitives": [
        {
          "attributes": {
            "NORMAL": 172,
            "POSITION": 171,
            "TANGENT": 173,
            "TEXCOORD_0": 174
          },
          "indices": 170,
          "material": 9,
          "mode": 4
        }
      ]
    },
    {
      "name": "Cube.013-0",
      "primitives": [
        {
          "attributes": {
            "NORMAL": 177,
            "POSITION": 176,
            "TANGENT": 178,
            "TEXCOORD_0": 179
          },
          "indices": 175,
          "material": 3,
          "mode": 4
        }
      ]
    },
    {
      "name": "Cube.013-1",
      "primitives": [
        {
          "attributes": {
            "NORMAL": 182,
            "POSITION": 181,
            "TANGENT": 183,
            "TEXCOORD_0": 184
          },
          "indices": 180,
          "material": 6,
          "mode": 4
        }
      ]
    },
    {
      "name": "Cube.016",
      "primitives": [
        {
          "attributes": {
            "NORMAL": 187,
            "POSITION": 186,
            "TANGENT": 188,
            "TEXCOORD_0": 189
          },
          "indices": 185,
          "material": 0,
          "mode": 4
        }
      ]
    },
    {
      "name": "Cube.022",
      "primitives": [
        {
          "attributes": {
            "NORMAL": 192,
            "POSITION": 191,
            "TANGENT": 193,
            "TEXCOORD_0": 194
          },
          "indices": 190,
          "material": 7,
          "mode": 4
        }
      ]
    },
    {
      "name": "BézierCurve.002",
      "primitives": [
        {
          "attributes": {
            "NORMAL": 197,
            "POSITION": 196,
            "TANGENT": 198,
            "TEXCOORD_0": 199
          },
          "indices": 195,
          "material": 12,
          "mode": 4
        }
      ]
    },
    {
      "name": "BézierCurve.003",
      "primitives": [
        {
          "attributes": {
            "NORMAL": 202,
            "POSITION": 201,
            "TANGENT": 203,
            "TEXCOORD_0": 204
          },
          "indices": 200,
          "material": 12,
          "mode": 4
        }
      ]
    },
    {
      "name": "BézierCurve.004",
      "primitives": [
        {
          "attributes": {
            "NORMAL": 207,
            "POSITION": 206,
            "TANGENT": 208,
            "TEXCOORD_0": 209
          },
          "indices": 205,
          "material": 1,
          "mode": 4
        }
      ]
    },
    {
      "name": "BézierCurve.005",
      "primitives": [
        {
          "attributes": {
            "NORMAL": 212,
            "POSITION": 211,
            "TANGENT": 213,
            "TEXCOORD_0": 214
          },
          "indices": 210,
          "material": 1,
          "mode": 4
        }
      ]
    },
    {
      "name": "Plane.007",
      "primitives": [
        {
          "attributes": {
            "NORMAL": 217,
            "POSITION": 216,
            "TANGENT": 218,
            "TEXCOORD_0": 219
          },
          "indices": 215,
          "material": 5,
          "mode": 4
        }
      ]
    },
    {
      "name": "Cube",
      "primitives": [
        {
          "attributes": {
            "NORMAL": 222,
            "POSITION": 221,
            "TANGENT": 223,
            "TEXCOORD_0": 224
          },
          "indices": 220,
          "material": 8,
          "mode": 4
        }
      ]
    }
  ],
  "nodes": [
    {
      "children": [
        1,
        3,
        5,
        7,
        10,
        12,
        14,
        16,
        18,
        20,
        22,
        24,
        26,
        28,
        30,
        32,
        34,
        36,
        38,
        40,
        42,
        44,
        46,
        48,
        50,
        52,
        54,
        57,
        59,
        61,
        63,
        65,
        68,
        70,
        73,
        75,
        77,
        79,
        81,
        83,
        85
      ],
      "name": "ROOT"
    },
    {
      "children": [
        2
      ],
      "name": "floor",
      "translation": [
        -1.21584188938141,
        0.0,
        -6.86000108718872
      ]
    },
    {
      "mesh": 0,
      "name": "Plane"
    },
    {
      "children": [
        4
      ],
      "name": "Cube",
      "translation": [
        1.46641993522644,
        1.39999997615814,
        -4.23250341415405
      ]
    },
    {
      "mesh": 1,
      "name": "Cube"
    },
    {
      "children": [
        6
      ],
      "name": "Cube.001",
      "translation": [
        -1.46864092350006,
        1.40928018093109,
        -4.71670579910278
      ]
    },
    {
      "mesh": 2,
      "name": "Cube.001"
    },
    {
      "children": [
        8,
        9
      ],
      "name": "Plane.002",
      "rotation": [
        0.0,
        -0.707106649875641,
        0.0,
        0.70710688829422
      ],
      "scale": [
        0.999999940395355,
        1.0,
        0.999999940395355
      ],
      "translation": [
        -2.626145362854,
        2.39643931388855,
        -8.99549770355225
      ]
    },
    {
      "mesh": 3,
      "name": "Plane.002-0"
    },
    {
      "mesh": 4,
      "name": "Plane.002-1"
    },
    {
      "children": [
        11
      ],
      "name": "Cube.002",
      "translation": [
        -2.51835370063782,
        0.5,
        -9.41222190856934
      ]
    },
    {
      "mesh": 5,
      "name": "Cube.002"
    },
    {
      "children": [
        13
      ],
      "name": "Cube.003",
      "translation": [
        -2.51835370063782,
        0.5,
        -8.71364212036133
      ]
    },
    {
      "mesh": 6,
      "name": "Cube.004"
    },
    {
      "children": [
        15
      ],
      "name": "Cube.004",
      "translation": [
        0.0,
        0.5,
        -8.63457679748535
      ]
    },
    {
      "mesh": 7,
      "name": "Cube.005"
    },
    {
      "children": [
        17
      ],
      "name": "труба буржуйки",
      "translation": [
        0.282131850719452,
        1.54188585281372,
        -8.40639972686768
      ]
    },
    {
      "mesh": 8,
      "name": "Cylinder"
    },
    {
      "children": [
        19
      ],
      "name": "буржуйка",
      "translation": [
        0.282131850719452,
        0.692105710506439,
        -8.40639972686768
      ]
    },
    {
      "mesh": 9,
      "name": "Cylinder.001"
    },
    {
      "children": [
        21
      ],
      "name": "дверь_буржуйки",
      "translation": [
        0.282131850719452,
        0.692105710506439,
        -8.39932441711426
      ]
    },
    {
      "mesh": 10,
      "name": "Cylinder.002"
    },
    {
      "children": [
        23
      ],
      "name": "нижняя_дверь_буржуйки",
      "translation": [
        0.282131850719452,
        0.692105710506439,
        -8.59814357757568
      ]
    },
    {
      "mesh": 11,
      "name": "Cylinder.003"
    },
    {
      "children": [
        25
      ],
      "name": "Cylinder",
      "translation": [
        0.416006982326508,
        1.08722066879272,
        -8.2124605178833
      ]
    },
    {
      "mesh": 12,
      "name": "Cylinder.004"
    },
    {
      "children": [
        27
      ],
      "name": "Cylinder.001",
      "translation": [
        0.416006982326508,
        0.9664426445961,
        -8.2124605178833
      ]
    },
    {
      "mesh": 13,
      "name": "Cylinder.005"
    },
    {
      "children": [
        29
      ],
      "name": "Cylinder.002",
      "translation": [
        0.416006982326508,
        0.813506245613098,
        -8.2124605178833
      ]
    },
    {
      "mesh": 14,
      "name": "Cylinder.006"
    },
    {
      "children": [
        31
      ],
      "name": "Cylinder.003",
      "translation": [
        0.416006982326508,
        0.744102895259857,
        -8.2124605178833
      ]
    },
    {
      "mesh": 15,
      "name": "Cylinder.007"
    },
    {
      "children": [
        33
      ],
      "name": "Plane.001",
      "rotation": [
        0.0,
        -0.707106649875641,
        0.0,
        0.70710688829422
      ],
      "scale": [
        0.999999940395355,
        1.0,
        0.999999940395355
      ],
      "translation": [
        0.196188494563103,
        1.02892899513245,
        -8.15625762939453
      ]
    },
    {
      "mesh": 16,
      "name": "Plane.001"
    },
    {
      "children": [
        35
      ],
      "name": "Plane.003",
      "rotation": [
        0.0,
        -0.707106649875641,
        0.0,
        0.70710688829422
      ],
      "scale": [
        0.999999940395355,
        1.0,
        0.999999940395355
      ],
      "translation": [
        0.195944532752037,
        0.777866959571838,
        -8.16463947296143
      ]
    },
    {
      "mesh": 17,
      "name": "Plane.003"
    },
    {
      "children": [
        37
      ],
      "name": "Потолок.005",
      "translation": [
        -7.27488422393799,
        3.0,
        4.02229595184326
      ]
    },
    {
      "mesh": 18,
      "name": "Cube.008"
    },
    {
      "children": [
        39
      ],
      "name": "Потолок.006",
      "translation": [
        -2.46704888343811,
        3.10000014305115,
        -8.62368392944336
      ]
    },
    {
      "mesh": 19,
      "name": "Cube.009"
    },
    {
      "children": [
        41
      ],
      "name": "Потолок.007",
      "translation": [
        -0.173361778259277,
        3.20636415481567,
        5.76125383377075
      ]
    },
    {
      "mesh": 20,
      "name": "Cube.010"
    },
    {
      "children": [
        43
      ],
      "name": "Cube.005",
      "translation": [
        0.375256538391113,
        1.46983242034912,
        5.82174158096313
      ]
    },
    {
      "mesh": 21,
      "name": "Cube.006"
    },
    {
      "children": [
        45
      ],
      "name": "floor.001",
      "translation": [
        -0.0120906829833984,
        0.0,
        5.80762386322021
      ]
    },
    {
      "mesh": 22,
      "name": "Plane.004"
    },
    {
      "children": [
        47
      ],
      "name": "floor.002",
      "translation": [
        -1.21210432052612,
        -0.00751962093636394,
        3.85428953170776
      ]
    },
    {
      "mesh": 23,
      "name": "Plane.005"
    },
    {
      "children": [
        49
      ],
      "name": "Cube.006",
      "translation": [
        -1.38800096511841,
        1.39397263526917,
        4.15129661560059
      ]
    },
    {
      "mesh": 24,
      "name": "Cube.007"
    },
    {
      "children": [
        51
      ],
      "name": "Cube.007",
      "translation": [
        1.46641993522644,
        1.39999997615814,
        0.232503533363342
      ]
    },
    {
      "mesh": 44,
      "name": "Cube"
    },
    {
      "children": [
        53
      ],
      "name": "Cube.008",
      "translation": [
        -1.46864092350006,
        1.40928018093109,
        1.4882824420929
      ]
    },
    {
      "mesh": 25,
      "name": "Cube.012"
    },
    {
      "children": [
        55,
        56
      ],
      "name": "doorframe.002",
      "rotation": [
        0.0,
        1.0,
        0.0,
        7.54979012640433e-08
      ],
      "translation": [
        -0.0110015869140625,
        0.651725709438324,
        6.36513948440552
      ]
    },
    {
      "mesh": 26,
      "name": "Cube.014-0"
    },
    {
      "mesh": 27,
      "name": "Cube.014-1"
    },
    {
      "children": [
        58
      ],
      "name": "Cube.010",
      "rotation": [
        0.0,
        -0.707106649875641,
        0.0,
        0.70710688829422
      ],
      "scale": [
        0.999999940395355,
        1.0,
        0.999999940395355
      ],
      "translation": [
        -5.11913299560547,
        1.03073811531067,
        -5.97799158096313
      ]
    },
    {
      "mesh": 28,
      "name": "Cube.015"
    },
    {
      "children": [
        60
      ],
      "name": "Cube.009",
      "translation": [
        -5.01725912094116,
        0.992480397224426,
        0.0
      ]
    },
    {
      "mesh": 29,
      "name": "Cube.017"
    },
    {
      "children": [
        62
      ],
      "name": "Cube.011",
      "translation": [
        -6.54366159439087,
        1.39248049259186,
        -1.54251575469971
      ]
    },
    {
      "mesh": 30,
      "name": "Cube.018"
    },
    {
      "children": [
        64
      ],
      "name": "Cube.012",
      "rotation": [
        0.0,
        -0.707106649875641,
        0.0,
        0.70710688829422
      ],
      "scale": [
        0.999999940395355,
        1.0,
        0.899999976158142
      ],
      "translation": [
        -6.52184200286865,
        1.03073811531067,
        -1.55120062828064
      ]
    },
    {
      "mesh": 31,
      "name": "Cube.019"
    },
    {
      "children": [
        66,
        67
      ],
      "name": "doorframe.001",
      "rotation": [
        0.0,
        -0.707106828689575,
        0.0,
        0.707106709480286
      ],
      "scale": [
        1.00000011920929,
        1.0,
        1.00000011920929
      ],
      "translation": [
        5.66835498809814,
        0.651725709438324,
        0.92196249961853
      ]
    },
    {
      "mesh": 32,
      "name": "Cube.003-0"
    },
    {
      "mesh": 33,
      "name": "Cube.003-1"
    },
    {
      "children": [
        69
      ],
      "name": "Cube.013",
      "translation": [
        5.90065813064575,
        1.41039514541626,
        -1.52548599243164
      ]
    },
    {
      "mesh": 34,
      "name": "Cube.011"
    },
    {
      "children": [
        71,
        72
      ],
      "name": "doorframe.003",
      "rotation": [
        0.0,
        -0.707106828689575,
        0.0,
        0.707106709480286
      ],
      "scale": [
        1.00000011920929,
        1.0,
        1.00000011920929
      ],
      "translation": [
        8.19314289093018,
        0.651725709438324,
        -5.46056652069092
      ]
    },
    {
      "mesh": 35,
      "name": "Cube.013-0"
    },
    {
      "mesh": 36,
      "name": "Cube.013-1"
    },
    {
      "children": [
        74
      ],
      "name": "Потолок.001",
      "translation": [
        6.49819803237915,
        3.0,
        4.02229595184326
      ]
    },
    {
      "mesh": 37,
      "name": "Cube.016"
    },
    {
      "children": [
        76
      ],
      "name": "Cube.015",
      "rotation": [
        0.0,
        -0.0594855882227421,
        0.0,
        0.998229205608368
      ],
      "scale": [
        0.999999940395355,
        1.0,
        0.999999940395355
      ],
      "translation": [
        -7.30714559555054,
        1.43945872783661,
        -7.91972875595093
      ]
    },
    {
      "mesh": 38,
      "name": "Cube.022"
    },
    {
      "children": [
        78
      ],
      "name": "BézierCurve.001",
      "translation": [
        -0.447652995586395,
        2.72310137748718,
        6.21364212036133
      ]
    },
    {
      "mesh": 39,
      "name": "BézierCurve.002"
    },
    {
      "children": [
        80
      ],
      "name": "BézierCurve.002",
      "translation": [
        -0.475539237260818,
        2.72310137748718,
        6.21364212036133
      ]
    },
    {
      "mesh": 40,
      "name": "BézierCurve.003"
    },
    {
      "children": [
        82
      ],
      "name": "BézierCurve.003",
      "translation": [
        -0.475539237260818,
        2.72310137748718,
        6.21364212036133
      ]
    },
    {
      "mesh": 41,
      "name": "BézierCurve.004"
    },
    {
      "children": [
        84
      ],
      "name": "BézierCurve.004",
      "translation": [
        -0.447652995586395,
        2.72310137748718,
        6.21364212036133
      ]
    },
    {
      "mesh": 42,
      "name": "BézierCurve.005"
    },
    {
      "children": [
        86
      ],
      "name": "Plane.004",
      "translation": [
        5.99755525588989,
        0.0,
        0.873823642730713
      ]
    },
    {
      "mesh": 43,
      "name": "Plane.007"
    }
  ],
  "samplers": [
    {
      "magFilter": 9729,
      "minFilter": 9985,
      "wrapS": 10497,
      "wrapT": 10497
    }
  ],
  "scene": 0,
  "scenes": [
    {
      "name": "Scene",
      "nodes": [
        0
      ]
    }
  ],
  "textures": [
    {
      "sampler": 0,
      "source": 0
    },
    {
      "sampler": 0,
      "source": 1
    },
    {
      "sampler": 0,
      "source": 2
    },
    {
      "sampler": 0,
      "source": 3
    },
    {
      "sampler": 0,
      "source": 4
    },
    {
      "sampler": 0,
      "source": 5
    },
    {
      "sampler": 0,
      "source": 6
    },
    {
      "sampler": 0,
      "source": 7
    },
    {
      "sampler": 0,
      "source": 8
    },
    {
      "sampler": 0,
      "source": 9
    },
    {
      "sampler": 0,
      "source": 10
    },
    {
      "sampler": 0,
      "source": 11
    },
    {
      "sampler": 0,
      "source": 12
    },
    {
      "sampler": 0,
      "source": 13
    },
    {
      "sampler": 0,
      "source": 14
    },
    {
      "sampler": 0,
      "source": 15
    },
    {
      "sampler": 0,
      "source": 16
    },
    {
      "sampler": 0,
      "source": 17
    },
    {
      "sampler": 0,
      "source": 18
    },
    {
      "sampler": 0,
      "source": 19
    },
    {
      "sampler": 0,
      "source": 20
    },
    {
      "sampler": 0,
      "source": 21
    },
    {
      "sampler": 0,
      "source": 22
    },
    {
      "sampler": 0,
      "source": 23
    },
    {
      "sampler": 0,
      "source": 24
    },
    {
      "sampler": 0,
      "source": 25
    },
    {
      "sampler": 0,
      "source": 26
    },
    {
      "sampler": 0,
      "source": 27
    },
    {
      "sampler": 0,
      "source": 28
    },
    {
      "sampler": 0,
      "source": 29
    },
    {
      "sampler": 0,
      "source": 30
    },
    {
      "sampler": 0,
      "source": 31
    },
    {
      "sampler": 0,
      "source": 32
    },
    {
      "sampler": 0,
      "source": 33
    },
    {
      "sampler": 0,
      "source": 34
    },
    {
      "sampler": 0,
      "source": 35
    },
    {
      "sampler": 0,
      "source": 36
    },
    {
      "sampler": 0,
      "source": 37
    },
    {
      "sampler": 0,
      "source": 38
    },
    {
      "sampler": 0,
      "source": 39
    },
    {
      "sampler": 0,
      "source": 40
    },
    {
      "sampler": 0,
      "source": 41
    }
  ]
}